<?xml version="1.0" encoding="UTF-8" standalone="no"?>
<svg
   xmlns:dc="http://purl.org/dc/elements/1.1/"
   xmlns:cc="http://creativecommons.org/ns#"
   xmlns:rdf="http://www.w3.org/1999/02/22-rdf-syntax-ns#"
   xmlns:svg="http://www.w3.org/2000/svg"
   xmlns="http://www.w3.org/2000/svg"
   xmlns:sodipodi="http://sodipodi.sourceforge.net/DTD/sodipodi-0.dtd"
   xmlns:inkscape="http://www.inkscape.org/namespaces/inkscape"
   inkscape:export-ydpi="96"
   inkscape:export-xdpi="96"
   width="1200"
   height="630"
   viewBox="0 0 317.5 166.6875"
   version="1.1"
   id="svg839"
   inkscape:version="1.0 (4035a4fb49, 2020-05-01)"
   sodipodi:docname="og.svg">
  <defs
     id="defs833" />
  <sodipodi:namedview
     units="px"
     id="base"
     pagecolor="#ffffff"
     bordercolor="#666666"
     borderopacity="1.0"
     inkscape:pageopacity="0.0"
     inkscape:pageshadow="2"
     inkscape:zoom="0.7"
     inkscape:cx="687.76807"
     inkscape:cy="211.96185"
     inkscape:document-units="px"
     inkscape:current-layer="layer3"
     inkscape:document-rotation="0"
     showgrid="false"
     inkscape:window-width="2560"
     inkscape:window-height="1351"
     inkscape:window-x="-9"
     inkscape:window-y="-9"
     inkscape:window-maximized="1" />
  <metadata
     id="metadata836">
    <rdf:RDF>
      <cc:Work
         rdf:about="">
        <dc:format>image/svg+xml</dc:format>
        <dc:type
           rdf:resource="http://purl.org/dc/dcmitype/StillImage" />
        <dc:title></dc:title>
      </cc:Work>
    </rdf:RDF>
  </metadata>
  <g
     inkscape:label="bg"
     id="layer2"
     inkscape:groupmode="layer">
    <rect
       y="0.48377931"
       x="0.48377931"
       height="165.71994"
       width="316.53244"
       id="rect866"
       style="fill:#d7bef0;fill-opacity:1;stroke:#a27fa6;stroke-width:0.96756;stroke-linecap:round;stroke-linejoin:round;paint-order:stroke fill markers" />
    <rect
       y="90.714249"
       x="0"
       height="77.863091"
       width="317.5"
       id="rect1155"
       style="fill:#f9dbf0;fill-opacity:1;stroke:none;stroke-width:3.79879;stroke-linecap:round;stroke-linejoin:round;paint-order:stroke fill markers" />
  </g>
  <g
     inkscape:label="text"
     id="layer4"
     inkscape:groupmode="layer">
    <text
       id="text1160"
       y="119.99049"
       x="8.21877"
       style="font-style:normal;font-weight:normal;font-size:10.5833px;line-height:1.25;font-family:sans-serif;fill:#4d0c56;fill-opacity:1;stroke:none;stroke-width:0.264583"
       xml:space="preserve"><tspan
         id="tspan1162"
         style="font-style:normal;font-variant:normal;font-weight:normal;font-stretch:normal;font-size:10.5833px;font-family:'UD Digi Kyokasho NP-B';-inkscape-font-specification:'UD Digi Kyokasho NP-B';fill:#4d0c56;fill-opacity:1;stroke-width:0.264583"
         y="119.99049"
         x="8.21877"
         sodipodi:role="line">フリーミント開始</tspan><tspan
         id="tspan1460"
         style="font-style:normal;font-variant:normal;font-weight:normal;font-stretch:normal;font-size:10.5833px;font-family:'UD Digi Kyokasho NP-B';-inkscape-font-specification:'UD Digi Kyokasho NP-B';fill:#4d0c56;fill-opacity:1;stroke-width:0.264583"
         y="134.19913"
         x="8.21877"
         sodipodi:role="line">2022/10/17 20:00〜</tspan></text>
    <text
       xml:space="preserve"
       style="font-style:normal;font-weight:normal;font-size:12.7px;line-height:1.25;font-family:sans-serif;fill:#000000;fill-opacity:1;stroke:none;stroke-width:0.264583"
       x="171.07498"
       y="120.54704"
       id="text1160-5"><tspan
         sodipodi:role="line"
         x="171.07498"
         y="120.54704"
         style="font-style:normal;font-variant:normal;font-weight:normal;font-stretch:normal;font-size:12.7px;font-family:'UD Digi Kyokasho NP-B';-inkscape-font-specification:'UD Digi Kyokasho NP-B';stroke-width:0.264583"
         id="tspan1460-3" /></text>
    <text
       id="text1491"
       y="120.57439"
       x="146.27679"
       style="font-style:normal;font-weight:normal;font-size:10.5833px;line-height:1.25;font-family:sans-serif;fill:#4d0c56;fill-opacity:1;stroke:none;stroke-width:0.264583"
       xml:space="preserve"><tspan
         style="fill:#4d0c56;fill-opacity:1;stroke-width:0.264583"
         y="120.57439"
         x="146.27679"
         id="tspan1489"
         sodipodi:role="line">✅WL(ウェイトリスト)なし</tspan><tspan
         id="tspan1495"
         style="fill:#4d0c56;fill-opacity:1;stroke-width:0.264583"
         y="134.68849"
         x="146.27679"
         sodipodi:role="line">✅全88種のジェネラティブアート</tspan><tspan
         id="tspan1501"
         style="fill:#4d0c56;fill-opacity:1;stroke-width:0.264583"
         y="148.8026"
         x="146.27679"
         sodipodi:role="line">✅ERC-721準拠</tspan><tspan
         id="tspan1499"
         style="fill:#4d0c56;fill-opacity:1;stroke-width:0.264583"
         y="162.15424"
         x="146.27679"
         sodipodi:role="line" /><tspan
         id="tspan1493"
         style="fill:#4d0c56;fill-opacity:1;stroke-width:0.264583"
         y="175.38336"
         x="146.27679"
         sodipodi:role="line" /></text>
  </g>
  <g
     inkscape:label="logo"
     inkscape:groupmode="layer"
     id="layer1">
    <g
       inkscape:label="logo"
       style="font-style:normal;font-variant:normal;font-weight:bold;font-stretch:normal;font-size:16.0775px;line-height:1.25;font-family:LOCKDOWN;-inkscape-font-specification:'LOCKDOWN Bold';mix-blend-mode:multiply;fill:#ffbadb;fill-opacity:1;stroke:#a27fa6;stroke-width:3.90818;stroke-linecap:round;stroke-linejoin:round;stroke-miterlimit:4;stroke-dasharray:none;stroke-opacity:1;paint-order:stroke fill markers"
       id="text1404"
       aria-label="Very Emoji"
       transform="matrix(2.2878467,0,0,2.2878467,8.4756607,22.794851)">
      <path
         id="path885"
         style="font-size:21.156px;fill:#ffbadb;fill-opacity:1;stroke:#a27fa6;stroke-width:3.90818;stroke-miterlimit:4;stroke-dasharray:none;stroke-opacity:1"
         d="m 14.125076,2.0835939 q 0,0.8470664 -2.365588,6.735211 Q 9.4042299,14.706949 9.4042299,15.533356 H 6.5634584 q 0,-0.795416 -2.1796465,-6.7455413 Q 2.2144955,2.8376896 2.2144955,2.0835939 h 3.2746348 q 0,0.7540957 1.3842305,5.3509805 1.3842305,4.5968846 1.3842305,5.2166896 h 0.1756113 q 0,-0.599145 1.3842305,-5.0307482 1.3945609,-4.4316035 1.3945609,-5.5369219 z" />
      <path
         id="path887"
         style="font-style:normal;font-variant:normal;font-weight:bold;font-stretch:normal;font-size:16.0775px;font-family:Candara;-inkscape-font-specification:'Candara Bold';fill:#ffbadb;fill-opacity:1;stroke:#a27fa6;stroke-width:3.90818;stroke-linecap:round;stroke-linejoin:round;stroke-miterlimit:4;stroke-dasharray:none;stroke-opacity:1;paint-order:stroke fill markers"
         d="m 21.942372,11.003709 q 0,0.400367 -0.0471,1.044095 l -5.05562,0.08635 q 0.109905,0.887088 0.761483,1.475864 0.651578,0.588776 1.711374,0.588776 1.177552,0 2.504259,-0.353266 l -0.157007,1.522967 q -1.083347,0.392517 -2.684816,0.392517 -2.025388,0 -3.108736,-1.1383 -1.075496,-1.138299 -1.075496,-2.739769 0,-1.672123 1.020544,-2.8967761 1.028395,-1.2325036 2.849674,-1.2325036 1.664272,0 2.472858,0.9027893 0.808585,0.9027892 0.808585,2.3472524 z m -1.83698,-0.07065 q 0,-1.805579 -1.538667,-1.805579 -1.468014,0 -1.742776,1.868381 z" />
      <path
         id="path889"
         style="font-style:normal;font-variant:normal;font-weight:bold;font-stretch:normal;font-size:16.0775px;font-family:Candara;-inkscape-font-specification:'Candara Bold';fill:#ffbadb;fill-opacity:1;stroke:#a27fa6;stroke-width:3.90818;stroke-linecap:round;stroke-linejoin:round;stroke-miterlimit:4;stroke-dasharray:none;stroke-opacity:1;paint-order:stroke fill markers"
         d="m 28.528808,8.0755313 -0.45532,1.8369799 Q 27.492563,9.677001 26.895937,9.677001 q -1.154,0 -1.522966,1.036245 0,3.132286 0.0471,4.82011 H 23.33188 q 0.133456,-2.362953 0.133456,-3.862368 0,-1.8683816 -0.392517,-3.5405043 l 2.001837,-0.2198096 q 0.133455,0.8635376 0.133455,1.0126941 h 0.125606 Q 26.05595,7.81647 27.257053,7.81647 q 0.565224,0 1.271755,0.2590613 z" />
      <path
         id="path891"
         style="font-style:normal;font-variant:normal;font-weight:bold;font-stretch:normal;font-size:16.0775px;font-family:Candara;-inkscape-font-specification:'Candara Bold';fill:#ffbadb;fill-opacity:1;stroke:#a27fa6;stroke-width:3.90818;stroke-linecap:round;stroke-linejoin:round;stroke-miterlimit:4;stroke-dasharray:none;stroke-opacity:1;paint-order:stroke fill markers"
         d="m 36.261395,8.0755313 q 0,0.5102722 -1.122599,3.2343407 -1.279606,3.132286 -1.577919,4.270586 -0.510272,1.962585 -1.37381,2.708368 -0.832136,0.722231 -2.496408,0.722231 l -0.157007,-1.515116 q 0.973442,0 1.60147,-0.557374 0.628027,-0.549524 0.628027,-1.475864 0,-0.934191 -1.413061,-4.082178 -1.413062,-3.1558372 -1.413062,-3.3049937 h 2.425756 q 0,0.2747619 0.714381,2.6612657 0.714381,2.386504 0.714381,2.920327 h 0.109905 q 0,-0.45532 0.643728,-2.684817 0.651578,-2.237347 0.651578,-2.8967757 z" />
      <path
         id="path893"
         style="font-size:19.645px;fill:#ffbadb;fill-opacity:1;stroke-width:3.90818;stroke-miterlimit:4;stroke-dasharray:none"
         d="m 49.650619,13.423053 -0.07674,2.110303 h -8.163034 q 0.124699,-2.89687 0.124699,-6.5323466 0,-3.4915919 -0.124699,-5.9568093 H 49.19978 L 49.094265,5.1449106 Q 46.21658,4.9914341 43.876062,4.9914341 q 0.09592,1.3333276 0.09592,3.1462696 2.004787,0 4.287751,-0.1055152 v 2.0047875 q -2.244594,-0.095923 -4.287751,-0.095923 0,1.947234 0.07674,3.645069 2.628286,0 5.601895,-0.163069 z" />
      <path
         id="path895"
         style="font-style:normal;font-variant:normal;font-weight:bold;font-stretch:normal;font-size:16.0775px;font-family:Candara;-inkscape-font-specification:'Candara Bold';fill:#ffbadb;fill-opacity:1;stroke:#a27fa6;stroke-width:3.90818;stroke-linecap:round;stroke-linejoin:round;stroke-miterlimit:4;stroke-dasharray:none;stroke-opacity:1;paint-order:stroke fill markers"
         d="m 62.894819,15.533356 h -2.08034 q 0.164857,-1.986137 0.164857,-3.862368 0,-1.405211 -0.361116,-1.8369802 -0.361115,-0.4317688 -1.154,-0.4317688 -0.635878,0 -1.342408,0.4631702 -0.0314,0.9812928 -0.0314,1.7584768 0,1.311007 0.0471,3.90947 h -2.103891 q 0.172707,-2.150994 0.172707,-4.184232 0,-1.051946 -0.298313,-1.4994155 -0.290462,-0.4474695 -1.216803,-0.4474695 -0.855687,0 -1.420911,0.5730749 0.03925,3.1087351 0.03925,5.5580421 H 51.19781 q 0.141307,-2.449307 0.141307,-3.862368 0,-1.8369802 -0.384667,-3.5405043 l 2.009687,-0.2198096 0.133456,0.8321362 h 0.125606 Q 54.243743,7.81647 55.523349,7.81647 q 1.601469,0 2.253048,0.9263403 h 0.125605 Q 59.063853,7.81647 60.202152,7.81647 q 1.334558,0 2.009688,0.5809253 0.682979,0.5730749 0.682979,2.0881907 0,0.149157 -0.0157,0.573075 -0.0157,0.416068 -0.0157,0.565225 0,1.311007 0.0314,3.90947 z" />
      <path
         id="path897"
         style="font-style:normal;font-variant:normal;font-weight:bold;font-stretch:normal;font-size:16.0775px;font-family:Candara;-inkscape-font-specification:'Candara Bold';fill:#ffbadb;fill-opacity:1;stroke:#a27fa6;stroke-width:3.90818;stroke-linecap:round;stroke-linejoin:round;stroke-miterlimit:4;stroke-dasharray:none;stroke-opacity:1;paint-order:stroke fill markers"
         d="m 72.205326,11.631736 q 0,1.978286 -1.216803,3.093035 -1.216803,1.114748 -2.865375,1.114748 -1.570068,0 -2.692667,-1.012694 -1.122599,-1.020544 -1.122599,-2.865375 0,-1.9861361 1.224654,-3.1087349 1.224653,-1.1225988 2.873225,-1.1225988 1.562218,0 2.676966,1.0283947 1.122599,1.0205444 1.122599,2.873225 z m -2.048939,0.23551 q 0,-1.138299 -0.533823,-1.9076328 -0.533824,-0.7771838 -1.389511,-0.7771838 -0.832136,0 -1.358109,0.7222315 -0.518122,0.7222311 -0.518122,1.8055781 0,1.1383 0.533823,1.915484 0.533823,0.769333 1.38951,0.769333 0.832136,0 1.350259,-0.722231 0.525973,-0.722232 0.525973,-1.805579 z" />
      <path
         id="path899"
         style="font-style:normal;font-variant:normal;font-weight:bold;font-stretch:normal;font-size:16.0775px;font-family:Candara;-inkscape-font-specification:'Candara Bold';fill:#ffbadb;fill-opacity:1;stroke:#a27fa6;stroke-width:3.90818;stroke-linecap:round;stroke-linejoin:round;stroke-miterlimit:4;stroke-dasharray:none;stroke-opacity:1;paint-order:stroke fill markers"
         d="m 75.840033,7.9106741 q -0.109905,2.3786539 -0.109905,4.7259059 0,0.612326 0.0314,1.687823 0.0314,1.067647 0.0314,1.428762 0,2.896776 -2.315851,3.359946 l -0.573075,-1.099047 q 0.557374,-0.44747 0.753633,-1.318858 0.204109,-0.863537 0.204109,-3.650409 0,-3.1636872 -0.282613,-4.9143133 z m 0.345415,-2.2137963 q 0,0.5338232 -0.368966,0.9341907 -0.368966,0.4003674 -1.020545,0.4003674 -0.549524,0 -0.863537,-0.3454151 -0.306164,-0.345415 -0.306164,-0.8321362 0,-0.5338232 0.368966,-0.9263403 0.368966,-0.392517 1.028395,-0.392517 0.557374,0 0.855687,0.345415 0.306164,0.3375647 0.306164,0.8164355 z" />
      <path
         id="path901"
         style="font-style:normal;font-variant:normal;font-weight:bold;font-stretch:normal;font-size:16.0775px;font-family:Candara;-inkscape-font-specification:'Candara Bold';fill:#ffbadb;fill-opacity:1;stroke:#a27fa6;stroke-width:3.90818;stroke-linecap:round;stroke-linejoin:round;stroke-miterlimit:4;stroke-dasharray:none;stroke-opacity:1;paint-order:stroke fill markers"
         d="M 79.867262,15.533356 H 77.75552 q 0.109905,-1.625021 0.109905,-3.728912 0,-2.0881913 -0.266912,-3.6582596 l 2.260898,-0.2276599 q -0.102054,1.5229662 -0.102054,3.8859195 0,2.017537 0.109905,3.728912 z m 0.361115,-9.8286278 q 0,0.5338232 -0.368966,0.9341906 -0.361115,0.4003674 -1.012694,0.4003674 -0.549524,0 -0.863537,-0.345415 -0.306164,-0.345415 -0.306164,-0.8321362 0,-0.5338232 0.361116,-0.9263403 0.368966,-0.3925171 1.028395,-0.3925171 0.557374,0 0.855687,0.345415 0.306163,0.3375647 0.306163,0.8164356 z" />
    </g>
  </g>
  <g
     inkscape:label="emoji"
     id="layer3"
     inkscape:groupmode="layer">
    <g
       transform="matrix(0.11863329,0,0,0.11863329,218.82043,7.9511592)"
       id="g1458"
       style="fill-rule:evenodd">
      <g
         id="g1311"
         transform="matrix(1,0,0,-1,0,640)">
        <g
           id="g1191">
          <g
             id="g1189"
             transform="matrix(1,0,0,-1,0,639)">
            <g
               id="g1179">
              <rect
                 id="rect1177"
                 style="fill:none;fill-rule:evenodd;stroke:none;stroke-width:1;stroke-linecap:butt"
                 height="639"
                 width="640"
                 y="0"
                 x="0" />
            </g>
            <g
               id="g1187">
              <g
                 id="g1183">
                <circle
                   id="circle1181"
                   style="fill:#ffd978;fill-rule:evenodd;stroke:#573a5e;stroke-width:16;stroke-linecap:butt"
                   r="289.17001"
                   cy="320.5"
                   cx="314.67999" />
              </g>
              <circle
                 id="circle1185"
                 style="fill:#cccccc;fill-opacity:0.19;fill-rule:evenodd;stroke:none;stroke-width:1;stroke-linecap:butt"
                 r="300"
                 cy="320.5"
                 cx="319.5" />
            </g>
          </g>
        </g>
        <g
           id="g1239">
          <g
             id="g1237"
             transform="matrix(1,0,0,-1,0,639)">
            <g
               id="g1195">
              <rect
                 id="rect1193"
                 style="fill:none;fill-rule:evenodd;stroke:none;stroke-width:1;stroke-linecap:butt"
                 height="639"
                 width="640"
                 y="0"
                 x="0" />
            </g>
            <g
               id="g1235">
              <g
                 id="g1233">
                <g
                   id="g1211">
                  <g
                     id="g1199">
                    <circle
                       id="circle1197"
                       style="fill:#707000;fill-rule:evenodd;stroke:none;stroke-width:1;stroke-linecap:butt"
                       r="72.989998"
                       cy="273.45999"
                       cx="445.73001" />
                  </g>
                  <g
                     id="g1209">
                    <g
                       id="g1203"
                       transform="rotate(-69.350018,468.89393,307.21252)">
                      <ellipse
                         id="ellipse1201"
                         style="fill:#ffffff;fill-opacity:0.76;fill-rule:evenodd;stroke:none;stroke-width:1;stroke-linecap:butt"
                         ry="19.700001"
                         rx="20.200001"
                         cy="306.60001"
                         cx="468.73999" />
                    </g>
                    <g
                       id="g1207"
                       transform="rotate(-36.809978,430.92678,250.30779)">
                      <ellipse
                         id="ellipse1205"
                         style="fill:#ffffff;fill-opacity:0.84;fill-rule:evenodd;stroke:none;stroke-width:1;stroke-linecap:butt"
                         ry="32.59"
                         rx="50.740002"
                         cy="249.31"
                         cx="430.47" />
                    </g>
                  </g>
                </g>
                <g
                   id="g1231">
                  <g
                     id="g1217">
                    <g
                       id="g1215">
                      <circle
                         id="circle1213"
                         style="fill:#707000;fill-rule:evenodd;stroke:none;stroke-width:1;stroke-linecap:butt"
                         r="72.989998"
                         cy="280.17999"
                         cx="193.27" />
                    </g>
                  </g>
                  <g
                     id="g1229">
                    <g
                       id="g1227">
                      <g
                         id="g1221"
                         transform="rotate(-69.350018,219.01552,318.92846)">
                        <ellipse
                           id="ellipse1219"
                           style="fill:#ffffff;fill-opacity:0.76;fill-rule:evenodd;stroke:none;stroke-width:1;stroke-linecap:butt"
                           ry="19.700001"
                           rx="20.200001"
                           cy="318.31"
                           cx="218.88" />
                      </g>
                      <g
                         id="g1225"
                         transform="rotate(-36.809978,181.07587,262.00156)">
                        <ellipse
                           id="ellipse1223"
                           style="fill:#ffffff;fill-opacity:0.84;fill-rule:evenodd;stroke:none;stroke-width:1;stroke-linecap:butt"
                           ry="32.59"
                           rx="50.740002"
                           cy="261.01001"
                           cx="180.60001" />
                      </g>
                    </g>
                  </g>
                </g>
              </g>
            </g>
          </g>
        </g>
        <g
           id="g1263">
          <g
             id="g1261"
             transform="matrix(1,0,0,-1,0,639)">
            <g
               id="g1243">
              <rect
                 id="rect1241"
                 style="fill:none;fill-rule:evenodd;stroke:none;stroke-width:1;stroke-linecap:butt"
                 height="639"
                 width="640"
                 y="0"
                 x="0" />
            </g>
            <g
               id="g1259">
              <g
                 id="g1257">
                <g
                   id="g1249"
                   transform="translate(-0.5,0.5)">
                  <g
                     id="g1247">
                    <path
                       id="path1245"
                       style="fill:#737373;fill-rule:evenodd;stroke:#737373;stroke-width:7;stroke-linecap:butt"
                       d="m 405,190.54 c -8.9655,-0.006 -17.89493,-1.13518 -26.58,-3.36 -2.60678,-0.66274 -4.18274,-3.31322 -3.52,-5.92 0.66274,-2.60678 3.31322,-4.18274 5.92,-3.52 37.39,9.49 76.23,-3.29 118.74,-39.08 2.06982,-1.59901 5.03226,-1.28187 6.71669,0.71906 1.68443,2.00093 1.49182,4.97407 -0.43669,6.74094 -35.29,29.74 -68.53,44.42 -100.84,44.42 z" />
                  </g>
                </g>
                <g
                   id="g1255"
                   transform="translate(-0.5,0.5)">
                  <g
                     id="g1253">
                    <path
                       id="path1251"
                       style="fill:#737373;fill-rule:evenodd;stroke:#737373;stroke-width:7;stroke-linecap:butt"
                       d="m 225.33,190.54 c -32.28,0 -65.51,-14.68 -100.84,-44.42 -1.41836,-1.09574 -2.12193,-2.88081 -1.83259,-4.64962 0.28934,-1.76881 1.52502,-3.23666 3.21859,-3.82335 1.69357,-0.5867 3.57247,-0.1978 4.894,1.01297 42.51,35.79 81.35,48.57 118.74,39.08 2.60678,-0.66274 5.25726,0.91322 5.92,3.52 0.66274,2.60678 -0.91322,5.25726 -3.52,5.92 -8.68483,2.22606 -17.61442,3.35486 -26.58,3.36 z" />
                  </g>
                </g>
              </g>
            </g>
          </g>
        </g>
        <g
           id="g1285">
          <g
             id="g1283"
             transform="matrix(1,0,0,-1,0,639)">
            <g
               id="g1267">
              <rect
                 id="rect1265"
                 style="fill:none;fill-rule:evenodd;stroke:none;stroke-width:1;stroke-linecap:butt"
                 height="639"
                 width="640"
                 y="0"
                 x="0" />
            </g>
            <g
               id="g1281">
              <g
                 id="g1273"
                 transform="translate(-0.5,0.5)">
                <g
                   id="g1271">
                  <path
                     id="path1269"
                     style="fill:#948585;fill-rule:evenodd;stroke:none;stroke-width:1;stroke-linecap:butt"
                     d="m 451.47,441.49 c 0,55.94 -60,99.82 -136.29,99.82 -76.29,0 -136.29,-43.88 -136.29,-99.82 0.0656,-9.96969 8.14021,-18.03091 18.11,-18.08 h 236.39 c 9.95807,0.0654 18.01456,8.12192 18.08,18.08 z" />
                </g>
              </g>
              <g
                 id="g1279"
                 transform="translate(-0.5,0.5)">
                <g
                   id="g1277">
                  <path
                     id="path1275"
                     style="fill:#f3d4d4;fill-rule:evenodd;stroke:none;stroke-width:1;stroke-linecap:butt"
                     d="m 424.35,449.63 c 0,44.8 -48,80 -109.17,80 -61.17,0 -109.18,-35.2 -109.18,-80 0.0491,-7.9783 6.50173,-14.43543 14.48,-14.49 h 189.39 c 7.97827,0.0546 14.43094,6.5117 14.48,14.49 z" />
                </g>
              </g>
            </g>
          </g>
        </g>
        <g
           id="g1309">
          <g
             id="g1307"
             transform="matrix(1,0,0,-1,0,639)">
            <g
               id="g1289">
              <rect
                 id="rect1287"
                 style="fill:none;fill-rule:evenodd;stroke:none;stroke-width:1;stroke-linecap:butt"
                 height="639"
                 width="640"
                 y="0"
                 x="0" />
            </g>
            <g
               id="g1305">
              <g
                 id="g1303">
                <g
                   id="g1295"
                   transform="translate(-0.5,0.5)">
                  <g
                     id="g1293">
                    <path
                       id="path1291"
                       style="fill:#fac5cc;fill-rule:evenodd;stroke:none;stroke-width:1;stroke-linecap:butt"
                       d="m 111.16,427.89 c -18.8,0 -34,12.23 -34,27.27 0,15.04 15.29,27.22 34.1,27.2 18.81,-0.02 34,-12.24 34,-27.28 0,-15.04 -15.26,-27.21 -34.1,-27.19 z" />
                  </g>
                </g>
                <g
                   id="g1301"
                   transform="translate(-0.5,0.5)">
                  <g
                     id="g1299">
                    <path
                       id="path1297"
                       style="fill:#fac5cc;fill-rule:evenodd;stroke:none;stroke-width:1;stroke-linecap:butt"
                       d="m 525.46,428.36 c -18.48,-2.79 -36.28,6.93 -39.77,21.71 -3.49,14.78 8.66,29 27.14,31.82 18.48,2.82 36.28,-6.94 39.77,-21.72 3.49,-14.78 -8.67,-29.02 -27.14,-31.81 z" />
                  </g>
                </g>
              </g>
            </g>
          </g>
        </g>
      </g>
    </g>
  </g>
</svg>
