<?xml version="1.0" encoding="utf-8"?>
<!DOCTYPE svg
  PUBLIC '-//W3C//DTD SVG 1.0//EN'
  'http://www.w3.org/TR/2001/REC-SVG-20010904/DTD/svg10.dtd'>
<svg width="640" height="640" preserveAspectRatio="xMinYMin meet" viewBox="0 0 640 640" xmlns="http://www.w3.org/2000/svg" version="1.0" fill-rule="evenodd" xmlns:xlink="http://www.w3.org/1999/xlink">
	<title>...</title>
	<desc>...</desc>
	<clipPath id="clip">
		<rect x="0" y="0" width="640" height="640"/>
	</clipPath>
	<g id="group" transform="scale(1,-1) translate(0,-640)" style="clip-path: url(#clip)">
		<g transform="">
			<g transform="">
				<g transform=" matrix(1,0,0,-1,0,639)">
					<g transform="">
						<rect x="0.0" y="0.0" width="640.0" height="639.0" style="stroke: none; stroke-linecap: butt; stroke-width: 1; fill: none; fill-rule: evenodd;"/>
					</g>
					<g transform="">
						<g transform="">
							<circle cx="314.68" cy="320.5" r="289.17" style="stroke: rgb(34%,23%,37%); stroke-linecap: butt; stroke-width: 16.0; fill: rgb(100%,85%,47%); fill-rule: evenodd;"/>
						</g>
						<circle cx="319.5" cy="320.5" r="300.0" style="stroke: none; stroke-linecap: butt; stroke-width: 1; fill: rgb(80%,80%,80%); fill-rule: evenodd; fill-opacity: 0.19;"/>
					</g>
				</g>
			</g>
			<g transform="">
				<g transform=" matrix(1,0,0,-1,0,639)">
					<g transform="">
						<rect x="0.0" y="0.0" width="640.0" height="639.0" style="stroke: none; stroke-linecap: butt; stroke-width: 1; fill: none; fill-rule: evenodd;"/>
					</g>
					<g transform="">
						<g transform="">
							<g transform="">
								<g transform="">
									<circle cx="445.73" cy="273.46" r="72.99" style="stroke: none; stroke-linecap: butt; stroke-width: 1; fill: rgb(44%,44%,0%); fill-rule: evenodd;"/>
								</g>
								<g transform="">
									<g transform=" matrix(0.352658,-0.935752,0.935752,0.352658,16.06,637.64)">
										<ellipse cx="468.74" cy="306.6" rx="20.19999999999999" ry="19.69999999999999" style="stroke: none; stroke-linecap: butt; stroke-width: 1; fill: rgb(100%,100%,100%); fill-rule: evenodd; fill-opacity: 0.76;"/>
									</g>
									<g transform=" matrix(0.800627,-0.599163,0.599163,0.800627,-64.06,308.1)">
										<ellipse cx="430.47" cy="249.31" rx="50.74000000000001" ry="32.58999999999999" style="stroke: none; stroke-linecap: butt; stroke-width: 1; fill: rgb(100%,100%,100%); fill-rule: evenodd; fill-opacity: 0.84;"/>
									</g>
								</g>
							</g>
							<g transform="">
								<g transform="">
									<g transform="">
										<circle cx="193.27" cy="280.18" r="72.99" style="stroke: none; stroke-linecap: butt; stroke-width: 1; fill: rgb(44%,44%,0%); fill-rule: evenodd;"/>
									</g>
								</g>
								<g transform="">
									<g transform="">
										<g transform=" matrix(0.352658,-0.935752,0.935752,0.352658,-156.66,411.4)">
											<ellipse cx="218.88" cy="318.31" rx="20.19999999999999" ry="19.69999999999999" style="stroke: none; stroke-linecap: butt; stroke-width: 1; fill: rgb(100%,100%,100%); fill-rule: evenodd; fill-opacity: 0.76;"/>
										</g>
										<g transform=" matrix(0.800627,-0.599163,0.599163,0.800627,-120.88,160.73)">
											<ellipse cx="180.6" cy="261.01" rx="50.74000000000001" ry="32.59000000000002" style="stroke: none; stroke-linecap: butt; stroke-width: 1; fill: rgb(100%,100%,100%); fill-rule: evenodd; fill-opacity: 0.84;"/>
										</g>
									</g>
								</g>
							</g>
						</g>
					</g>
				</g>
			</g>
			<g transform="">
				<g transform=" matrix(1,0,0,-1,0,639)">
					<g transform="">
						<rect x="0.0" y="0.0" width="640.0" height="639.0" style="stroke: none; stroke-linecap: butt; stroke-width: 1; fill: none; fill-rule: evenodd;"/>
					</g>
					<g transform="">
						<g transform="">
							<g transform=" matrix(1,0,0,1,-0.5,0.5)">
								<g transform="">
									<path d="M 405 190.54 C 396.0345 190.5336 387.105067 189.404823 378.42 187.18 C 375.813216 186.517258 374.237258 183.866784 374.9 181.26 C 375.562742 178.653216 378.213216 177.077258 380.82 177.74 C 418.21 187.23 457.05 174.45 499.56 138.66 C 501.62982 137.060986 504.592264 137.378132 506.276691 139.379059 C 507.961117 141.379986 507.768512 144.353126 505.84 146.12 C 470.55 175.86 437.31 190.54 405 190.54 Z " style="stroke: rgb(45%,45%,45%); stroke-linecap: butt; stroke-width: 7.0; fill: rgb(45%,45%,45%); fill-rule: evenodd;"/>
								</g>
							</g>
							<g transform=" matrix(1,0,0,1,-0.5,0.5)">
								<g transform="">
									<path d="M 225.33 190.54 C 193.05 190.54 159.82 175.86 124.49 146.12 C 123.071637 145.024261 122.368073 143.239187 122.657413 141.470379 C 122.946753 139.701572 124.182427 138.233716 125.876001 137.647025 C 127.569574 137.060334 129.44847 137.449233 130.77 138.66 C 173.28 174.45 212.12 187.23 249.51 177.74 C 252.116784 177.077258 254.767258 178.653216 255.43 181.26 C 256.092742 183.866784 254.516784 186.517258 251.91 187.18 C 243.225169 189.406064 234.29558 190.53486 225.33 190.54 Z " style="stroke: rgb(45%,45%,45%); stroke-linecap: butt; stroke-width: 7.0; fill: rgb(45%,45%,45%); fill-rule: evenodd;"/>
								</g>
							</g>
						</g>
					</g>
				</g>
			</g>
			<g transform="">
				<g transform=" matrix(1,0,0,-1,0,639)">
					<g transform="">
						<rect x="0.0" y="0.0" width="640.0" height="639.0" style="stroke: none; stroke-linecap: butt; stroke-width: 1; fill: none; fill-rule: evenodd;"/>
					</g>
					<g transform="">
						<g transform=" matrix(1,0,0,1,-0.5,0.5)">
							<g transform="">
								<path d="M 429.3 448.23 C 429.528206 450.521441 428.22214 452.690081 426.09 453.56 C 426.09 453.56 422.88 454.76 417.35 456.97 C 411.83 458.88 403.89 462.39 394.05 464.6 C 389.05 465.81 383.71 467.11 377.98 468.42 C 374.47 469.22 370.85 469.83 367.04 470.33 C 368.54 483.59 365.04 497.65 357.3 507.69 C 348.387722 519.299454 334.57583 526.09449 319.94 526.07 L 319.13 526.07 C 304.206943 525.88512 290.261916 518.611875 281.57 506.48 C 274.44 496.54 271.43 483.08 272.83 470.33 C 269.12 469.83 265.4 469.22 261.89 468.42 C 256.063333 467.086667 250.64 465.78 245.62 464.5 C 241.144987 463.514938 236.746897 462.208211 232.46 460.59 C 228.64 459.183333 225.326667 457.976667 222.52 456.97 C 217.09 454.86 213.98 453.56 213.98 453.56 C 212.681185 453.079397 211.635496 452.088414 211.085864 450.817271 C 210.536231 449.546129 210.5305 448.105476 211.07 446.83 C 211.884654 444.644459 214.068793 443.281426 216.39 443.51 L 225.53 444.32 C 231.26 444.82 239.79 446.53 249.33 447.03 C 254.15 447.43 259.33 447.83 264.8 448.43 C 270.27 449.03 276.15 449.04 282.17 449.54 C 294.23 450.54 307.08 450.44 319.94 450.84 C 332.79 450.44 345.65 450.54 357.7 449.54 C 363.7 449.04 369.65 449.14 375.17 448.43 C 380.69 447.72 385.92 447.33 390.74 447.03 C 400.48 446.33 408.51 444.82 414.24 444.42 C 420.06 443.81 423.68 443.51 423.68 443.51 C 426.535231 443.26173 429.051232 445.374813 429.3 448.23 Z " style="stroke: none; stroke-linecap: butt; stroke-width: 1; fill: rgb(58%,52%,52%); fill-rule: evenodd;"/>
							</g>
						</g>
						<g transform=" matrix(1,0,0,1,-0.5,0.5)">
							<g transform="">
								<path d="M 340.22 473.44 L 325.36 474.04 C 325.26 478.04 324.66 482.18 324.36 486.04 C 324.06 491.46 324.16 497.69 321.05 502.31 C 319.64 504.41 317.53 503.61 316.63 501.6 C 314.02 495.6 315.02 488.35 315.33 481.92 C 315.43 479.31 315.43 476.7 315.53 474.08 L 299.66 473.48 C 296.44 473.38 293.33 473.08 290.22 472.68 C 289.41 481.11 291.42 490.05 295.94 496.38 C 301.473314 503.845737 310.149393 508.331455 319.44 508.53 L 319.95 508.53 C 329.108311 508.502589 337.740698 504.247291 343.34 497 C 348.06 490.78 350.34 481.84 349.76 473.3 L 342.43 473.2 C 341.73 473.24 341 473.44 340.22 473.44 Z " style="stroke: none; stroke-linecap: butt; stroke-width: 1; fill: rgb(98%,77%,80%); fill-rule: evenodd;"/>
							</g>
						</g>
					</g>
				</g>
			</g>
			<g transform="">
				<g transform=" matrix(1,0,0,-1,0,639)">
					<g transform="">
						<rect x="0.0" y="0.0" width="640.0" height="639.0" style="stroke: none; stroke-linecap: butt; stroke-width: 1; fill: none; fill-rule: evenodd;"/>
					</g>
					<g transform="">
						<g transform=" matrix(1,0,0,1,-0.5,0.5)">
							<g transform="">
								<path d="M 550.86 262.26 C 550.39 260.73 549.44 258.56 548.27 258.26 C 546.27 257.69 542.94 257.5 541.92 258.67 C 540.16 260.67 539.32 263.81 538.86 266.59 C 537.57 274.38 536.68 282.23 535.63 290.06 L 534.93 289.97 C 533.72 299.04 531.93 308.08 531.41 317.19 C 530.48 332.4 539.85 343.6 553 344 C 559.56 344.19 562.54 342.48 563.53 336.08 C 564.804693 328.725446 565.330715 321.260635 565.1 313.8 C 564.18 295.64 556.12 279.3 550.86 262.26 Z " style="stroke: none; stroke-linecap: butt; stroke-width: 1; fill: rgb(57%,83%,96%); fill-rule: evenodd;"/>
							</g>
						</g>
					</g>
				</g>
			</g>
		</g>
	</g>
</svg>
