<?xml version="1.0" encoding="utf-8"?>
<!DOCTYPE svg
  PUBLIC '-//W3C//DTD SVG 1.0//EN'
  'http://www.w3.org/TR/2001/REC-SVG-20010904/DTD/svg10.dtd'>
<svg width="640" height="640" preserveAspectRatio="xMinYMin meet" viewBox="0 0 640 640" xmlns="http://www.w3.org/2000/svg" version="1.0" fill-rule="evenodd" xmlns:xlink="http://www.w3.org/1999/xlink">
	<title>...</title>
	<desc>...</desc>
	<clipPath id="clip">
		<rect x="0" y="0" width="640" height="640"/>
	</clipPath>
	<g id="group" transform="scale(1,-1) translate(0,-640)" style="clip-path: url(#clip)">
		<g transform="">
			<g transform="">
				<g transform=" matrix(1,0,0,-1,0,639)">
					<g transform="">
						<rect x="0.0" y="0.0" width="640.0" height="639.0" style="stroke: none; stroke-linecap: butt; stroke-width: 1; fill: none; fill-rule: evenodd;"/>
					</g>
					<g transform="">
						<g transform="">
							<circle cx="314.68" cy="320.5" r="289.17" style="stroke: rgb(34%,23%,37%); stroke-linecap: butt; stroke-width: 16.0; fill: rgb(100%,85%,47%); fill-rule: evenodd;"/>
						</g>
						<circle cx="319.5" cy="320.5" r="300.0" style="stroke: none; stroke-linecap: butt; stroke-width: 1; fill: rgb(80%,80%,80%); fill-rule: evenodd; fill-opacity: 0.19;"/>
					</g>
				</g>
			</g>
			<g transform="">
				<g transform=" matrix(1,0,0,-1,0,639)">
					<g transform="">
						<rect x="0.0" y="0.0" width="640.0" height="639.0" style="stroke: none; stroke-linecap: butt; stroke-width: 1; fill: none; fill-rule: evenodd;"/>
					</g>
					<g transform="">
						<g transform="">
							<g transform=" matrix(1,0,0,1,-0.5,0.5)">
								<g transform="">
									<path d="M 496.45 266.6 C 496.45 342.86 371.65 342.86 371.65 266.6 Z " style="stroke: rgb(45%,45%,45%); stroke-linecap: butt; stroke-width: 1; fill: rgb(100%,100%,100%); fill-rule: evenodd;"/>
								</g>
							</g>
							<g transform=" matrix(1,0,0,1,-0.5,0.5)">
								<g transform="">
									<path d="M 434.05 328.48 C 416.63 328.48 400.34 323.02 388.19 313.12 C 374.31 301.81 367 285.72 367 266.6 L 367 261.92 L 501.13 261.92 L 501.13 266.6 C 501.13 285.72 493.79 301.81 479.91 313.12 C 467.75 323 451.47 328.48 434.05 328.48 Z M 376.5 271.28 C 378.98 304.1 407.5 319.12 434.05 319.12 C 460.6 319.12 489.12 304.12 491.59 271.28 Z " style="stroke: rgb(45%,45%,45%); stroke-linecap: butt; stroke-width: 1; fill: rgb(45%,45%,45%); fill-rule: evenodd;"/>
								</g>
							</g>
							<g transform=" matrix(1,0,0,1,-0.5,0.5)">
								<g transform="">
									<path d="M 468.1 267.89 C 468.1 280.68 454.84 291.04 438.46 291.04 C 422.08 291.04 408.83 280.68 408.83 267.89 C 408.83 267.46 408.83 267.02 408.83 266.6 L 468.02 266.6 C 468.09 267 468.1 267.46 468.1 267.89 Z " style="stroke: rgb(45%,45%,45%); stroke-linecap: butt; stroke-width: 1; fill: rgb(45%,45%,45%); fill-rule: evenodd;"/>
								</g>
							</g>
							<g transform=" matrix(1,0,0,1,-0.5,0.5)">
								<g transform="">
									<path d="M 268.35 266.6 C 268.35 342.86 143.55 342.86 143.55 266.6 Z " style="stroke: rgb(45%,45%,45%); stroke-linecap: butt; stroke-width: 1; fill: rgb(100%,100%,100%); fill-rule: evenodd;"/>
								</g>
							</g>
							<g transform=" matrix(1,0,0,1,-0.5,0.5)">
								<g transform="">
									<path d="M 206 328.48 C 188.58 328.48 172.3 323.02 160.14 313.12 C 146.26 301.81 138.92 285.72 138.92 266.6 L 138.92 261.92 L 273 261.92 L 273 266.6 C 273 285.72 265.66 301.81 251.78 313.12 C 239.66 323 223.37 328.48 206 328.48 Z M 148.46 271.28 C 150.93 304.1 179.46 319.12 206 319.12 C 232.54 319.12 261.07 304.12 263.55 271.28 Z " style="stroke: rgb(45%,45%,45%); stroke-linecap: butt; stroke-width: 1; fill: rgb(45%,45%,45%); fill-rule: evenodd;"/>
								</g>
							</g>
							<g transform=" matrix(1,0,0,1,-0.5,0.5)">
								<g transform="">
									<path d="M 240 267.89 C 240 280.68 226.74 291.04 210.36 291.04 C 193.98 291.04 180.72 280.68 180.72 267.89 C 180.72 267.46 180.72 267.02 180.72 266.6 L 240 266.6 C 240 267 240 267.46 240 267.89 Z " style="stroke: rgb(45%,45%,45%); stroke-linecap: butt; stroke-width: 1; fill: rgb(45%,45%,45%); fill-rule: evenodd;"/>
								</g>
							</g>
						</g>
					</g>
				</g>
			</g>
			<g transform="">
				<g transform=" matrix(1,0,0,-1,0,639)">
					<g transform="">
						<rect x="0.0" y="0.0" width="640.0" height="639.0" style="stroke: none; stroke-linecap: butt; stroke-width: 1; fill: none; fill-rule: evenodd;"/>
					</g>
					<g transform="">
						<g transform="">
							<g transform="">
								<g transform=" matrix(1,0,0,1,-0.5,0.5)">
									<g transform="">
										<path d="M 137.24 143.6 C 137.24 143.6 157.16 114.74 197.49 115.38 " style="stroke: rgb(45%,45%,45%); stroke-linecap: round; stroke-width: 16.0; fill: none; fill-rule: evenodd;"/>
									</g>
								</g>
							</g>
							<g transform=" matrix(1,0,0,1,-0.5,0.5)">
								<g transform="">
									<path d="M 489.42 149.66 C 489.42 149.66 469.5 120.8 429.18 121.44 " style="stroke: rgb(45%,45%,45%); stroke-linecap: round; stroke-width: 16.0; fill: none; fill-rule: evenodd;"/>
								</g>
							</g>
						</g>
					</g>
				</g>
			</g>
			<g transform="">
				<g transform=" matrix(1,0,0,-1,0,639)">
					<g transform="">
						<rect x="0.0" y="0.0" width="640.0" height="639.0" style="stroke: none; stroke-linecap: butt; stroke-width: 1; fill: none; fill-rule: evenodd;"/>
					</g>
					<g transform="">
						<g transform="">
							<g transform=" matrix(1,0,0,1,-0.5,0.5)">
								<g transform="">
									<path d="M 457.14 432.94 C 457.14 499.3 419.68 531.25 384.88 532.88 C 383.97 532.88 383.02 532.97 382.07 532.97 C 376.729495 532.954866 371.412915 532.255847 366.25 530.89 C 348.25 526.13 331.25 513.2 320.14 492.24 C 320.083377 492.166239 320.036335 492.085596 320 492 L 320 491.95 C 313 478.72 308.26 462.26 307.1 442.63 L 307.1 442.45 C 307.1 442.05 307.03 441.66 307.03 441.21 C 306.93 439.27 306.86 437.21 306.86 435.21 C 306.86 434.5 306.86 433.75 306.86 433 C 306.86 425.59 310.86 419.46 316.24 417.61 C 316.24 417.56 316.24 417.56 316.31 417.56 L 317.16 417.3 C 318.00991 417.086264 318.883662 416.982085 319.76 416.99 C 326.86 416.99 332.59 424.31 332.69 433.18 L 332.69 434.59 C 332.69 436.53 332.76 438.47 332.86 440.28 C 332.86 440.59 332.86 440.95 332.93 441.28 L 333.04 442.61 C 335.5 473.45 349.66 491.05 366.25 497.61 C 371.867754 499.831972 377.896448 500.824252 383.93 500.52 C 407.51 499.42 431.27 478.11 431.27 433.01 C 431.27 424.06 437.07 416.82 444.21 416.82 C 451.35 416.82 457.14 424 457.14 432.94 Z " style="stroke: none; stroke-linecap: butt; stroke-width: 1; fill: rgb(45%,45%,45%); fill-rule: evenodd;"/>
								</g>
							</g>
							<g transform=" matrix(1,0,0,1,-0.5,0.5)">
								<g transform="">
									<path d="M 320.25 416.75 C 319.187778 416.752686 318.132223 416.917932 317.12 417.24 L 316.27 417.5 C 316.27 417.5 316.27 417.5 316.2 417.55 C 311.04 419.66 307.31 425.75 307.31 432.94 L 307.31 433.34 L 307.31 434.53 C 307.31 436.47 307.24 438.41 307.13 440.27 C 307.13 440.58 307.13 440.89 307.06 441.19 C 307.056608 441.574287 307.033243 441.958138 306.99 442.34 C 304.6 473.09 290.58 490.79 274.06 497.41 C 268.356164 499.730521 262.208122 500.755195 256.06 500.41 C 232.48 499.31 208.68 478 208.68 432.9 C 208.68 423.95 202.92 416.71 195.78 416.71 C 188.64 416.71 182.85 423.95 182.85 432.9 C 182.85 499.26 220.28 531.21 255.07 532.84 C 256.02 532.84 256.97 532.93 257.89 532.93 C 263.330236 532.940623 268.747725 532.227707 274 530.81 C 292 526 308.89 513 320 492 L 320 491.95 C 320.05257 491.866644 320.099347 491.779773 320.14 491.69 C 327.06 478.5 331.7 462.17 332.86 442.69 C 332.86 442.21 332.93 441.69 332.93 441.23 C 333.04 439.29 333.11 437.23 333.11 435.23 C 333.11 434.52 333.18 433.77 333.18 433.02 C 333.18 424 327.38 416.75 320.25 416.75 Z " style="stroke: none; stroke-linecap: butt; stroke-width: 1; fill: rgb(45%,45%,45%); fill-rule: evenodd;"/>
								</g>
							</g>
						</g>
					</g>
				</g>
			</g>
			<g transform="">
				<g transform=" matrix(1,0,0,-1,0,639)">
					<g transform="">
						<rect x="0.0" y="0.0" width="640.0" height="639.0" style="stroke: none; stroke-linecap: butt; stroke-width: 1; fill: none; fill-rule: evenodd;"/>
					</g>
					<g transform="">
						<g transform=" matrix(1,0,0,1,-0.5,0.5)">
							<g transform="">
								<path d="M 550.86 262.26 C 550.39 260.73 549.44 258.56 548.27 258.26 C 546.27 257.69 542.94 257.5 541.92 258.67 C 540.16 260.67 539.32 263.81 538.86 266.59 C 537.57 274.38 536.68 282.23 535.63 290.06 L 534.93 289.97 C 533.72 299.04 531.93 308.08 531.41 317.19 C 530.48 332.4 539.85 343.6 553 344 C 559.56 344.19 562.54 342.48 563.53 336.08 C 564.804693 328.725446 565.330715 321.260635 565.1 313.8 C 564.18 295.64 556.12 279.3 550.86 262.26 Z " style="stroke: none; stroke-linecap: butt; stroke-width: 1; fill: rgb(57%,83%,96%); fill-rule: evenodd;"/>
							</g>
						</g>
					</g>
				</g>
			</g>
		</g>
	</g>
</svg>
