<?xml version="1.0" encoding="utf-8"?>
<!DOCTYPE svg
  PUBLIC '-//W3C//DTD SVG 1.0//EN'
  'http://www.w3.org/TR/2001/REC-SVG-20010904/DTD/svg10.dtd'>
<svg width="640" height="640" preserveAspectRatio="xMinYMin meet" viewBox="0 0 640 640" xmlns="http://www.w3.org/2000/svg" version="1.0" fill-rule="evenodd" xmlns:xlink="http://www.w3.org/1999/xlink">
	<title>...</title>
	<desc>...</desc>
	<clipPath id="clip">
		<rect x="0" y="0" width="640" height="640"/>
	</clipPath>
	<g id="group" transform="scale(1,-1) translate(0,-640)" style="clip-path: url(#clip)">
		<g transform="">
			<g transform="">
				<g transform=" matrix(1,0,0,-1,0,639)">
					<g transform="">
						<rect x="0.0" y="0.0" width="640.0" height="639.0" style="stroke: none; stroke-linecap: butt; stroke-width: 1; fill: none; fill-rule: evenodd;"/>
					</g>
					<g transform="">
						<g transform="">
							<circle cx="314.68" cy="320.5" r="289.17" style="stroke: rgb(34%,23%,37%); stroke-linecap: butt; stroke-width: 16.0; fill: rgb(100%,85%,47%); fill-rule: evenodd;"/>
						</g>
						<circle cx="319.5" cy="320.5" r="300.0" style="stroke: none; stroke-linecap: butt; stroke-width: 1; fill: rgb(80%,80%,80%); fill-rule: evenodd; fill-opacity: 0.19;"/>
					</g>
				</g>
			</g>
			<g transform="">
				<g transform=" matrix(1,0,0,-1,0,639)">
					<g transform="">
						<rect x="0.0" y="0.0" width="640.0" height="639.0" style="stroke: none; stroke-linecap: butt; stroke-width: 1; fill: none; fill-rule: evenodd;"/>
					</g>
					<g transform="">
						<g transform="">
							<g transform=" matrix(0.015358,-0.999882,0.999882,0.015358,-77.67,494.61)">
								<ellipse cx="212.31" cy="286.24" rx="60.120000000000005" ry="39.579999999999984" style="stroke: none; stroke-linecap: butt; stroke-width: 1; fill: rgb(45%,45%,45%); fill-rule: evenodd;"/>
							</g>
							<g transform=" matrix(0.015358,-0.999882,0.999882,0.015358,134.39,709.96)">
								<ellipse cx="427.69" cy="286.24" rx="60.120000000000005" ry="39.579999999999984" style="stroke: none; stroke-linecap: butt; stroke-width: 1; fill: rgb(45%,45%,45%); fill-rule: evenodd;"/>
							</g>
						</g>
					</g>
				</g>
			</g>
			<g transform="">
				<g transform=" matrix(1,0,0,-1,0,639)">
					<g transform="">
						<rect x="0.0" y="0.0" width="640.0" height="639.0" style="stroke: none; stroke-linecap: butt; stroke-width: 1; fill: none; fill-rule: evenodd;"/>
					</g>
					<g transform="">
						<g transform="">
							<g transform=" matrix(1,0,0,1,-0.5,0.5)">
								<g transform="">
									<path d="M 405 190.54 C 396.0345 190.5336 387.105067 189.404823 378.42 187.18 C 375.813216 186.517258 374.237258 183.866784 374.9 181.26 C 375.562742 178.653216 378.213216 177.077258 380.82 177.74 C 418.21 187.23 457.05 174.45 499.56 138.66 C 501.62982 137.060986 504.592264 137.378132 506.276691 139.379059 C 507.961117 141.379986 507.768512 144.353126 505.84 146.12 C 470.55 175.86 437.31 190.54 405 190.54 Z " style="stroke: rgb(45%,45%,45%); stroke-linecap: butt; stroke-width: 7.0; fill: rgb(45%,45%,45%); fill-rule: evenodd;"/>
								</g>
							</g>
							<g transform=" matrix(1,0,0,1,-0.5,0.5)">
								<g transform="">
									<path d="M 225.33 190.54 C 193.05 190.54 159.82 175.86 124.49 146.12 C 123.071637 145.024261 122.368073 143.239187 122.657413 141.470379 C 122.946753 139.701572 124.182427 138.233716 125.876001 137.647025 C 127.569574 137.060334 129.44847 137.449233 130.77 138.66 C 173.28 174.45 212.12 187.23 249.51 177.74 C 252.116784 177.077258 254.767258 178.653216 255.43 181.26 C 256.092742 183.866784 254.516784 186.517258 251.91 187.18 C 243.225169 189.406064 234.29558 190.53486 225.33 190.54 Z " style="stroke: rgb(45%,45%,45%); stroke-linecap: butt; stroke-width: 7.0; fill: rgb(45%,45%,45%); fill-rule: evenodd;"/>
								</g>
							</g>
						</g>
					</g>
				</g>
			</g>
			<g transform="">
				<g transform=" matrix(1,0,0,-1,0,639)">
					<g transform="">
						<rect x="0.0" y="0.0" width="640.0" height="639.0" style="stroke: none; stroke-linecap: butt; stroke-width: 1; fill: none; fill-rule: evenodd;"/>
					</g>
					<g transform="">
						<g transform="">
							<g transform=" matrix(1,0,0,1,-0.5,0.5)">
								<g transform="">
									<path d="M 270.25 360.94 L 357.07 356 C 357.95 355.65 419.79 527.46 366.38 534.39 C 323.43 539.97 222.08 536.39 245.17 534.14 C 245.17 534.14 276.31 540.89 270.25 360.93 Z " style="stroke: rgb(58%,52%,52%); stroke-linecap: round; stroke-width: 15.63; fill: rgb(95%,83%,83%); fill-rule: evenodd;"/>
								</g>
							</g>
						</g>
					</g>
				</g>
			</g>
			<g transform="">
				<g transform=" matrix(1,0,0,-1,0,639)">
					<g transform="">
						<rect x="0.0" y="0.0" width="640.0" height="639.0" style="stroke: none; stroke-linecap: butt; stroke-width: 1; fill: none; fill-rule: evenodd;"/>
					</g>
					<g transform="">
						<g transform=" matrix(1,0,0,1,-0.5,0.5)">
							<g transform="">
								<path d="M 550.86 262.26 C 550.39 260.73 549.44 258.56 548.27 258.26 C 546.27 257.69 542.94 257.5 541.92 258.67 C 540.16 260.67 539.32 263.81 538.86 266.59 C 537.57 274.38 536.68 282.23 535.63 290.06 L 534.93 289.97 C 533.72 299.04 531.93 308.08 531.41 317.19 C 530.48 332.4 539.85 343.6 553 344 C 559.56 344.19 562.54 342.48 563.53 336.08 C 564.804693 328.725446 565.330715 321.260635 565.1 313.8 C 564.18 295.64 556.12 279.3 550.86 262.26 Z " style="stroke: none; stroke-linecap: butt; stroke-width: 1; fill: rgb(57%,83%,96%); fill-rule: evenodd;"/>
							</g>
						</g>
					</g>
				</g>
			</g>
		</g>
	</g>
</svg>
