<?xml version="1.0" encoding="utf-8"?>
<!DOCTYPE svg
  PUBLIC '-//W3C//DTD SVG 1.0//EN'
  'http://www.w3.org/TR/2001/REC-SVG-20010904/DTD/svg10.dtd'>
<svg width="640" height="640" preserveAspectRatio="xMinYMin meet" viewBox="0 0 640 640" xmlns="http://www.w3.org/2000/svg" version="1.0" fill-rule="evenodd" xmlns:xlink="http://www.w3.org/1999/xlink">
	<title>...</title>
	<desc>...</desc>
	<clipPath id="clip">
		<rect x="0" y="0" width="640" height="640"/>
	</clipPath>
	<g id="group" transform="scale(1,-1) translate(0,-640)" style="clip-path: url(#clip)">
		<g transform="">
			<g transform="">
				<g transform=" matrix(1,0,0,-1,0,639)">
					<g transform="">
						<rect x="0.0" y="0.0" width="640.0" height="639.0" style="stroke: none; stroke-linecap: butt; stroke-width: 1; fill: none; fill-rule: evenodd;"/>
					</g>
					<g transform="">
						<g transform="">
							<circle cx="314.68" cy="320.5" r="289.17" style="stroke: rgb(34%,23%,37%); stroke-linecap: butt; stroke-width: 16.0; fill: rgb(100%,85%,47%); fill-rule: evenodd;"/>
						</g>
						<circle cx="319.5" cy="320.5" r="300.0" style="stroke: none; stroke-linecap: butt; stroke-width: 1; fill: rgb(80%,80%,80%); fill-rule: evenodd; fill-opacity: 0.19;"/>
					</g>
				</g>
			</g>
			<g transform="">
				<g transform=" matrix(1,0,0,-1,0,639)">
					<g transform="">
						<rect x="0.0" y="0.0" width="640.0" height="639.0" style="stroke: none; stroke-linecap: butt; stroke-width: 1; fill: none; fill-rule: evenodd;"/>
					</g>
					<g transform="">
						<g transform="">
							<g transform="">
								<g transform="">
									<circle cx="445.73" cy="273.46" r="72.99" style="stroke: none; stroke-linecap: butt; stroke-width: 1; fill: rgb(44%,44%,0%); fill-rule: evenodd;"/>
								</g>
								<g transform="">
									<g transform=" matrix(0.352658,-0.935752,0.935752,0.352658,16.06,637.64)">
										<ellipse cx="468.74" cy="306.6" rx="20.19999999999999" ry="19.69999999999999" style="stroke: none; stroke-linecap: butt; stroke-width: 1; fill: rgb(100%,100%,100%); fill-rule: evenodd; fill-opacity: 0.76;"/>
									</g>
									<g transform=" matrix(0.800627,-0.599163,0.599163,0.800627,-64.06,308.1)">
										<ellipse cx="430.47" cy="249.31" rx="50.74000000000001" ry="32.58999999999999" style="stroke: none; stroke-linecap: butt; stroke-width: 1; fill: rgb(100%,100%,100%); fill-rule: evenodd; fill-opacity: 0.84;"/>
									</g>
								</g>
							</g>
							<g transform="">
								<g transform="">
									<g transform="">
										<circle cx="193.27" cy="280.18" r="72.99" style="stroke: none; stroke-linecap: butt; stroke-width: 1; fill: rgb(44%,44%,0%); fill-rule: evenodd;"/>
									</g>
								</g>
								<g transform="">
									<g transform="">
										<g transform=" matrix(0.352658,-0.935752,0.935752,0.352658,-156.66,411.4)">
											<ellipse cx="218.88" cy="318.31" rx="20.19999999999999" ry="19.69999999999999" style="stroke: none; stroke-linecap: butt; stroke-width: 1; fill: rgb(100%,100%,100%); fill-rule: evenodd; fill-opacity: 0.76;"/>
										</g>
										<g transform=" matrix(0.800627,-0.599163,0.599163,0.800627,-120.88,160.73)">
											<ellipse cx="180.6" cy="261.01" rx="50.74000000000001" ry="32.59000000000002" style="stroke: none; stroke-linecap: butt; stroke-width: 1; fill: rgb(100%,100%,100%); fill-rule: evenodd; fill-opacity: 0.84;"/>
										</g>
									</g>
								</g>
							</g>
						</g>
					</g>
				</g>
			</g>
			<g transform="">
				<g transform=" matrix(1,0,0,-1,0,639)">
					<g transform="">
						<rect x="0.0" y="0.0" width="640.0" height="639.0" style="stroke: none; stroke-linecap: butt; stroke-width: 1; fill: none; fill-rule: evenodd;"/>
					</g>
					<g transform="">
						<g transform="">
							<g transform=" matrix(1,0,0,1,-0.5,0.5)">
								<g transform="">
									<path d="M 344.56 182.17 C 353.43 157.8 388.88 138.86 417.26 144.64 C 444.49 150.2 471.26 157.91 497.96 164.64 C 491.58 179.36 474.64 189 458.96 182.35 C 422.54 166.97 386.84 163.29 350.82 182.8 C 349.29 183.56 346.77 182.43 344.56 182.17 Z " style="stroke: none; stroke-linecap: butt; stroke-width: 1; fill: rgb(45%,45%,45%); fill-rule: evenodd;"/>
								</g>
							</g>
							<g transform=" matrix(1,0,0,1,-0.5,0.5)">
								<g transform="">
									<path d="M 142 182.17 C 150.87 157.8 186.32 138.86 214.7 144.64 C 241.92 150.2 268.7 157.91 295.41 164.64 C 289.03 179.35 272.08 189 256.35 182.35 C 219.93 166.97 184.23 163.29 148.21 182.8 C 146.77 183.56 144.24 182.43 142 182.17 Z " style="stroke: none; stroke-linecap: butt; stroke-width: 1; fill: rgb(45%,45%,45%); fill-rule: evenodd;"/>
								</g>
							</g>
						</g>
					</g>
				</g>
			</g>
			<g transform="">
				<g transform=" matrix(1,0,0,-1,0,639)">
					<g transform="">
						<rect x="0.0" y="0.0" width="640.0" height="639.0" style="stroke: none; stroke-linecap: butt; stroke-width: 1; fill: none; fill-rule: evenodd;"/>
					</g>
					<g transform="">
						<g transform=" matrix(1,0,0,1,-0.5,0.5)">
							<g transform="">
								<path d="M 429.3 448.23 C 429.528206 450.521441 428.22214 452.690081 426.09 453.56 C 426.09 453.56 422.88 454.76 417.35 456.97 C 411.83 458.88 403.89 462.39 394.05 464.6 C 389.05 465.81 383.71 467.11 377.98 468.42 C 374.47 469.22 370.85 469.83 367.04 470.33 C 368.54 483.59 365.04 497.65 357.3 507.69 C 348.387722 519.299454 334.57583 526.09449 319.94 526.07 L 319.13 526.07 C 304.206943 525.88512 290.261916 518.611875 281.57 506.48 C 274.44 496.54 271.43 483.08 272.83 470.33 C 269.12 469.83 265.4 469.22 261.89 468.42 C 256.063333 467.086667 250.64 465.78 245.62 464.5 C 241.144987 463.514938 236.746897 462.208211 232.46 460.59 C 228.64 459.183333 225.326667 457.976667 222.52 456.97 C 217.09 454.86 213.98 453.56 213.98 453.56 C 212.681185 453.079397 211.635496 452.088414 211.085864 450.817271 C 210.536231 449.546129 210.5305 448.105476 211.07 446.83 C 211.884654 444.644459 214.068793 443.281426 216.39 443.51 L 225.53 444.32 C 231.26 444.82 239.79 446.53 249.33 447.03 C 254.15 447.43 259.33 447.83 264.8 448.43 C 270.27 449.03 276.15 449.04 282.17 449.54 C 294.23 450.54 307.08 450.44 319.94 450.84 C 332.79 450.44 345.65 450.54 357.7 449.54 C 363.7 449.04 369.65 449.14 375.17 448.43 C 380.69 447.72 385.92 447.33 390.74 447.03 C 400.48 446.33 408.51 444.82 414.24 444.42 C 420.06 443.81 423.68 443.51 423.68 443.51 C 426.535231 443.26173 429.051232 445.374813 429.3 448.23 Z " style="stroke: none; stroke-linecap: butt; stroke-width: 1; fill: rgb(58%,52%,52%); fill-rule: evenodd;"/>
							</g>
						</g>
						<g transform=" matrix(1,0,0,1,-0.5,0.5)">
							<g transform="">
								<path d="M 340.22 473.44 L 325.36 474.04 C 325.26 478.04 324.66 482.18 324.36 486.04 C 324.06 491.46 324.16 497.69 321.05 502.31 C 319.64 504.41 317.53 503.61 316.63 501.6 C 314.02 495.6 315.02 488.35 315.33 481.92 C 315.43 479.31 315.43 476.7 315.53 474.08 L 299.66 473.48 C 296.44 473.38 293.33 473.08 290.22 472.68 C 289.41 481.11 291.42 490.05 295.94 496.38 C 301.473314 503.845737 310.149393 508.331455 319.44 508.53 L 319.95 508.53 C 329.108311 508.502589 337.740698 504.247291 343.34 497 C 348.06 490.78 350.34 481.84 349.76 473.3 L 342.43 473.2 C 341.73 473.24 341 473.44 340.22 473.44 Z " style="stroke: none; stroke-linecap: butt; stroke-width: 1; fill: rgb(98%,77%,80%); fill-rule: evenodd;"/>
							</g>
						</g>
					</g>
				</g>
			</g>
		</g>
	</g>
</svg>
