<?xml version="1.0" encoding="utf-8"?>
<!DOCTYPE svg
  PUBLIC '-//W3C//DTD SVG 1.0//EN'
  'http://www.w3.org/TR/2001/REC-SVG-20010904/DTD/svg10.dtd'>
<svg width="640" height="640" preserveAspectRatio="xMinYMin meet" viewBox="0 0 640 640" xmlns="http://www.w3.org/2000/svg" version="1.0" fill-rule="evenodd" xmlns:xlink="http://www.w3.org/1999/xlink">
	<title>...</title>
	<desc>...</desc>
	<clipPath id="clip">
		<rect x="0" y="0" width="640" height="640"/>
	</clipPath>
	<g id="group" transform="scale(1,-1) translate(0,-640)" style="clip-path: url(#clip)">
		<g transform="">
			<g transform="">
				<g transform=" matrix(1,0,0,-1,0,639)">
					<g transform="">
						<rect x="0.0" y="0.0" width="640.0" height="639.0" style="stroke: none; stroke-linecap: butt; stroke-width: 1; fill: none; fill-rule: evenodd;"/>
					</g>
					<g transform="">
						<g transform="">
							<circle cx="314.68" cy="320.5" r="289.17" style="stroke: rgb(34%,23%,37%); stroke-linecap: butt; stroke-width: 16.0; fill: rgb(100%,85%,47%); fill-rule: evenodd;"/>
						</g>
						<circle cx="319.5" cy="320.5" r="300.0" style="stroke: none; stroke-linecap: butt; stroke-width: 1; fill: rgb(80%,80%,80%); fill-rule: evenodd; fill-opacity: 0.19;"/>
					</g>
				</g>
			</g>
			<g transform="">
				<g transform=" matrix(1,0,0,-1,0,639)">
					<g transform="">
						<rect x="0.0" y="0.0" width="640.0" height="639.0" style="stroke: none; stroke-linecap: butt; stroke-width: 1; fill: none; fill-rule: evenodd;"/>
					</g>
					<g transform="">
						<g transform="">
							<g transform=" matrix(1,0,0,1,-0.5,0.5)">
								<g transform="">
									<path d="M 238.64 280.6 C 240.061729 280.154629 241.30047 279.259788 242.17 278.05 C 244.145969 275.129472 243.545162 271.180687 240.79 268.98 C 239.974658 268.071014 238.942657 267.383013 237.79 266.98 C 236.28 266.05 234.79 265.14 233.28 264.4 C 230.98 263.19 228.68 261.92 226.38 260.83 C 221.78 258.54 217.17 256.43 212.56 254.31 C 203.32 250.16 194.04 246.21 184.74 242.31 C 166.12 234.623333 147.413333 227.216667 128.62 220.09 C 127.195715 219.564072 125.606447 220.22155 124.97 221.6 C 124.652296 222.294594 124.624573 223.087177 124.892968 223.802272 C 125.161363 224.517366 125.703734 225.095977 126.4 225.41 C 144.633333 233.75 162.733333 242.346667 180.7 251.2 C 189.7 255.65 198.58 260.2 207.37 264.84 C 209.59 266.05 211.77 267.29 213.98 268.51 L 146.72 272.51 C 144.891401 272.63877 143.485013 274.178843 143.522361 276.011589 C 143.55971 277.844336 145.027674 279.325834 146.86 279.38 L 204.59 280.38 L 135.92 312.92 C 134.809005 313.484207 134.321255 314.809828 134.801623 315.959562 C 135.281991 317.109295 136.567845 317.69389 137.75 317.3 L 238 280.88 C 238.2 280.8 238.44 280.69 238.64 280.6 Z " style="stroke: none; stroke-linecap: butt; stroke-width: 1; fill: rgb(45%,45%,45%); fill-rule: evenodd;"/>
								</g>
							</g>
							<g transform=" matrix(1,0,0,1,-0.5,0.5)">
								<g transform="">
									<path d="M 447.37 199.13 C 419.89842 199.125959 395.130374 215.673466 384.618393 241.054285 C 374.106412 266.435104 379.92137 295.649182 399.351002 315.07023 C 418.780634 334.491278 447.99728 340.293325 473.37345 329.770128 C 498.749621 319.246932 515.286181 294.471575 515.27 267 C 515.253437 229.511582 484.858422 199.129996 447.37 199.13 Z M 405 251.94 C 405 241.318821 411.398044 231.743473 421.210733 227.678923 C 431.023423 223.614374 442.318317 225.861069 449.828624 233.371376 C 457.338931 240.881683 459.585626 252.176577 455.521077 261.989267 C 451.456527 271.801956 441.881179 278.2 431.26 278.2 C 416.757002 278.2 405 266.442998 405 251.94 Z M 448.68 315.1 C 443.157153 315.1 438.68 310.622847 438.68 305.1 C 438.68 299.577153 443.157153 295.1 448.68 295.1 C 454.202847 295.1 458.68 299.577153 458.68 305.1 C 458.68 310.622847 454.202847 315.1 448.68 315.1 Z M 486.24 294 C 477.237759 294 469.94 286.702241 469.94 277.7 C 469.94 268.697759 477.237759 261.4 486.24 261.4 C 495.242241 261.4 502.54 268.697759 502.54 277.7 C 502.54 286.702241 495.242241 294 486.24 294 Z " style="stroke: none; stroke-linecap: butt; stroke-width: 1; fill: rgb(45%,45%,45%); fill-rule: evenodd;"/>
								</g>
							</g>
						</g>
					</g>
				</g>
			</g>
			<g transform="">
				<g transform=" matrix(1,0,0,-1,0,639)">
					<g transform="">
						<rect x="0.0" y="0.0" width="640.0" height="639.0" style="stroke: none; stroke-linecap: butt; stroke-width: 1; fill: none; fill-rule: evenodd;"/>
					</g>
					<g transform="">
						<g transform="">
							<g transform=" matrix(1,0,0,1,-0.5,0.5)">
								<g transform="">
									<path d="M 405 190.54 C 396.0345 190.5336 387.105067 189.404823 378.42 187.18 C 375.813216 186.517258 374.237258 183.866784 374.9 181.26 C 375.562742 178.653216 378.213216 177.077258 380.82 177.74 C 418.21 187.23 457.05 174.45 499.56 138.66 C 501.62982 137.060986 504.592264 137.378132 506.276691 139.379059 C 507.961117 141.379986 507.768512 144.353126 505.84 146.12 C 470.55 175.86 437.31 190.54 405 190.54 Z " style="stroke: rgb(45%,45%,45%); stroke-linecap: butt; stroke-width: 7.0; fill: rgb(45%,45%,45%); fill-rule: evenodd;"/>
								</g>
							</g>
							<g transform=" matrix(1,0,0,1,-0.5,0.5)">
								<g transform="">
									<path d="M 225.33 190.54 C 193.05 190.54 159.82 175.86 124.49 146.12 C 123.071637 145.024261 122.368073 143.239187 122.657413 141.470379 C 122.946753 139.701572 124.182427 138.233716 125.876001 137.647025 C 127.569574 137.060334 129.44847 137.449233 130.77 138.66 C 173.28 174.45 212.12 187.23 249.51 177.74 C 252.116784 177.077258 254.767258 178.653216 255.43 181.26 C 256.092742 183.866784 254.516784 186.517258 251.91 187.18 C 243.225169 189.406064 234.29558 190.53486 225.33 190.54 Z " style="stroke: rgb(45%,45%,45%); stroke-linecap: butt; stroke-width: 7.0; fill: rgb(45%,45%,45%); fill-rule: evenodd;"/>
								</g>
							</g>
						</g>
					</g>
				</g>
			</g>
			<g transform="">
				<g transform=" matrix(1,0,0,-1,0,639)">
					<g transform="">
						<rect x="0.0" y="0.0" width="640.0" height="639.0" style="stroke: none; stroke-linecap: butt; stroke-width: 1; fill: none; fill-rule: evenodd;"/>
					</g>
					<g transform="">
						<g transform="">
							<g transform=" matrix(1,0,0,1,-0.5,0.5)">
								<g transform="">
									<path d="M 185.21 446.68 C 270.05 530.52 360.07 522.2 444.67 450.55 " style="stroke: rgb(45%,45%,45%); stroke-linecap: round; stroke-width: 11.91; fill: none; fill-rule: evenodd;"/>
								</g>
							</g>
						</g>
					</g>
				</g>
			</g>
			<g transform="">
				<g transform=" matrix(1,0,0,-1,0,639)">
					<g transform="">
						<rect x="0.0" y="0.0" width="640.0" height="639.0" style="stroke: none; stroke-linecap: butt; stroke-width: 1; fill: none; fill-rule: evenodd;"/>
					</g>
					<g transform="">
						<g transform=" matrix(1,0,0,1,-0.5,0.5)">
							<g transform="">
								<path d="M 550.86 262.26 C 550.39 260.73 549.44 258.56 548.27 258.26 C 546.27 257.69 542.94 257.5 541.92 258.67 C 540.16 260.67 539.32 263.81 538.86 266.59 C 537.57 274.38 536.68 282.23 535.63 290.06 L 534.93 289.97 C 533.72 299.04 531.93 308.08 531.41 317.19 C 530.48 332.4 539.85 343.6 553 344 C 559.56 344.19 562.54 342.48 563.53 336.08 C 564.804693 328.725446 565.330715 321.260635 565.1 313.8 C 564.18 295.64 556.12 279.3 550.86 262.26 Z " style="stroke: none; stroke-linecap: butt; stroke-width: 1; fill: rgb(57%,83%,96%); fill-rule: evenodd;"/>
							</g>
						</g>
					</g>
				</g>
			</g>
		</g>
	</g>
</svg>
