<?xml version="1.0" encoding="utf-8"?>
<!DOCTYPE svg
  PUBLIC '-//W3C//DTD SVG 1.0//EN'
  'http://www.w3.org/TR/2001/REC-SVG-20010904/DTD/svg10.dtd'>
<svg width="640" height="640" preserveAspectRatio="xMinYMin meet" viewBox="0 0 640 640" xmlns="http://www.w3.org/2000/svg" version="1.0" fill-rule="evenodd" xmlns:xlink="http://www.w3.org/1999/xlink">
	<title>...</title>
	<desc>...</desc>
	<clipPath id="clip">
		<rect x="0" y="0" width="640" height="640"/>
	</clipPath>
	<g id="group" transform="scale(1,-1) translate(0,-640)" style="clip-path: url(#clip)">
		<g transform="">
			<g transform="">
				<g transform=" matrix(1,0,0,-1,0,639)">
					<g transform="">
						<rect x="0.0" y="0.0" width="640.0" height="639.0" style="stroke: none; stroke-linecap: butt; stroke-width: 1; fill: none; fill-rule: evenodd;"/>
					</g>
					<g transform="">
						<g transform="">
							<circle cx="314.68" cy="320.5" r="289.17" style="stroke: rgb(34%,23%,37%); stroke-linecap: butt; stroke-width: 16.0; fill: rgb(100%,85%,47%); fill-rule: evenodd;"/>
						</g>
						<circle cx="319.5" cy="320.5" r="300.0" style="stroke: none; stroke-linecap: butt; stroke-width: 1; fill: rgb(80%,80%,80%); fill-rule: evenodd; fill-opacity: 0.19;"/>
					</g>
				</g>
			</g>
			<g transform="">
				<g transform=" matrix(1,0,0,-1,0,639)">
					<g transform="">
						<rect x="0.0" y="0.0" width="640.0" height="639.0" style="stroke: none; stroke-linecap: butt; stroke-width: 1; fill: none; fill-rule: evenodd;"/>
					</g>
					<g transform="">
						<g transform="">
							<g transform=" matrix(1,0,0,1,-0.5,0.5)">
								<g transform="">
									<path d="M 238.64 280.6 C 240.061729 280.154629 241.30047 279.259788 242.17 278.05 C 244.145969 275.129472 243.545162 271.180687 240.79 268.98 C 239.974658 268.071014 238.942657 267.383013 237.79 266.98 C 236.28 266.05 234.79 265.14 233.28 264.4 C 230.98 263.19 228.68 261.92 226.38 260.83 C 221.78 258.54 217.17 256.43 212.56 254.31 C 203.32 250.16 194.04 246.21 184.74 242.31 C 166.12 234.623333 147.413333 227.216667 128.62 220.09 C 127.195715 219.564072 125.606447 220.22155 124.97 221.6 C 124.652296 222.294594 124.624573 223.087177 124.892968 223.802272 C 125.161363 224.517366 125.703734 225.095977 126.4 225.41 C 144.633333 233.75 162.733333 242.346667 180.7 251.2 C 189.7 255.65 198.58 260.2 207.37 264.84 C 209.59 266.05 211.77 267.29 213.98 268.51 L 146.72 272.51 C 144.891401 272.63877 143.485013 274.178843 143.522361 276.011589 C 143.55971 277.844336 145.027674 279.325834 146.86 279.38 L 204.59 280.38 L 135.92 312.92 C 134.809005 313.484207 134.321255 314.809828 134.801623 315.959562 C 135.281991 317.109295 136.567845 317.69389 137.75 317.3 L 238 280.88 C 238.2 280.8 238.44 280.69 238.64 280.6 Z " style="stroke: none; stroke-linecap: butt; stroke-width: 1; fill: rgb(45%,45%,45%); fill-rule: evenodd;"/>
								</g>
							</g>
							<g transform=" matrix(1,0,0,1,-0.5,0.5)">
								<g transform="">
									<path d="M 447.37 199.13 C 419.89842 199.125959 395.130374 215.673466 384.618393 241.054285 C 374.106412 266.435104 379.92137 295.649182 399.351002 315.07023 C 418.780634 334.491278 447.99728 340.293325 473.37345 329.770128 C 498.749621 319.246932 515.286181 294.471575 515.27 267 C 515.253437 229.511582 484.858422 199.129996 447.37 199.13 Z M 405 251.94 C 405 241.318821 411.398044 231.743473 421.210733 227.678923 C 431.023423 223.614374 442.318317 225.861069 449.828624 233.371376 C 457.338931 240.881683 459.585626 252.176577 455.521077 261.989267 C 451.456527 271.801956 441.881179 278.2 431.26 278.2 C 416.757002 278.2 405 266.442998 405 251.94 Z M 448.68 315.1 C 443.157153 315.1 438.68 310.622847 438.68 305.1 C 438.68 299.577153 443.157153 295.1 448.68 295.1 C 454.202847 295.1 458.68 299.577153 458.68 305.1 C 458.68 310.622847 454.202847 315.1 448.68 315.1 Z M 486.24 294 C 477.237759 294 469.94 286.702241 469.94 277.7 C 469.94 268.697759 477.237759 261.4 486.24 261.4 C 495.242241 261.4 502.54 268.697759 502.54 277.7 C 502.54 286.702241 495.242241 294 486.24 294 Z " style="stroke: none; stroke-linecap: butt; stroke-width: 1; fill: rgb(45%,45%,45%); fill-rule: evenodd;"/>
								</g>
							</g>
						</g>
					</g>
				</g>
			</g>
			<g transform="">
				<g transform=" matrix(1,0,0,-1,0,639)">
					<g transform="">
						<rect x="0.0" y="0.0" width="640.0" height="639.0" style="stroke: none; stroke-linecap: butt; stroke-width: 1; fill: none; fill-rule: evenodd;"/>
					</g>
					<g transform="">
						<g transform="">
							<g transform="">
								<g transform=" matrix(1,0,0,1,-0.5,0.5)">
									<g transform="">
										<path d="M 137.24 143.6 C 137.24 143.6 157.16 114.74 197.49 115.38 " style="stroke: rgb(45%,45%,45%); stroke-linecap: round; stroke-width: 16.0; fill: none; fill-rule: evenodd;"/>
									</g>
								</g>
							</g>
							<g transform=" matrix(1,0,0,1,-0.5,0.5)">
								<g transform="">
									<path d="M 489.42 149.66 C 489.42 149.66 469.5 120.8 429.18 121.44 " style="stroke: rgb(45%,45%,45%); stroke-linecap: round; stroke-width: 16.0; fill: none; fill-rule: evenodd;"/>
								</g>
							</g>
						</g>
					</g>
				</g>
			</g>
			<g transform="">
				<g transform=" matrix(1,0,0,-1,0,639)">
					<g transform="">
						<rect x="0.0" y="0.0" width="640.0" height="639.0" style="stroke: none; stroke-linecap: butt; stroke-width: 1; fill: none; fill-rule: evenodd;"/>
					</g>
					<g transform="">
						<g transform="">
							<g transform=" matrix(1,0,0,1,-0.5,0.5)">
								<g transform="">
									<path d="M 457.14 432.94 C 457.14 499.3 419.68 531.25 384.88 532.88 C 383.97 532.88 383.02 532.97 382.07 532.97 C 376.729495 532.954866 371.412915 532.255847 366.25 530.89 C 348.25 526.13 331.25 513.2 320.14 492.24 C 320.083377 492.166239 320.036335 492.085596 320 492 L 320 491.95 C 313 478.72 308.26 462.26 307.1 442.63 L 307.1 442.45 C 307.1 442.05 307.03 441.66 307.03 441.21 C 306.93 439.27 306.86 437.21 306.86 435.21 C 306.86 434.5 306.86 433.75 306.86 433 C 306.86 425.59 310.86 419.46 316.24 417.61 C 316.24 417.56 316.24 417.56 316.31 417.56 L 317.16 417.3 C 318.00991 417.086264 318.883662 416.982085 319.76 416.99 C 326.86 416.99 332.59 424.31 332.69 433.18 L 332.69 434.59 C 332.69 436.53 332.76 438.47 332.86 440.28 C 332.86 440.59 332.86 440.95 332.93 441.28 L 333.04 442.61 C 335.5 473.45 349.66 491.05 366.25 497.61 C 371.867754 499.831972 377.896448 500.824252 383.93 500.52 C 407.51 499.42 431.27 478.11 431.27 433.01 C 431.27 424.06 437.07 416.82 444.21 416.82 C 451.35 416.82 457.14 424 457.14 432.94 Z " style="stroke: none; stroke-linecap: butt; stroke-width: 1; fill: rgb(45%,45%,45%); fill-rule: evenodd;"/>
								</g>
							</g>
							<g transform=" matrix(1,0,0,1,-0.5,0.5)">
								<g transform="">
									<path d="M 320.25 416.75 C 319.187778 416.752686 318.132223 416.917932 317.12 417.24 L 316.27 417.5 C 316.27 417.5 316.27 417.5 316.2 417.55 C 311.04 419.66 307.31 425.75 307.31 432.94 L 307.31 433.34 L 307.31 434.53 C 307.31 436.47 307.24 438.41 307.13 440.27 C 307.13 440.58 307.13 440.89 307.06 441.19 C 307.056608 441.574287 307.033243 441.958138 306.99 442.34 C 304.6 473.09 290.58 490.79 274.06 497.41 C 268.356164 499.730521 262.208122 500.755195 256.06 500.41 C 232.48 499.31 208.68 478 208.68 432.9 C 208.68 423.95 202.92 416.71 195.78 416.71 C 188.64 416.71 182.85 423.95 182.85 432.9 C 182.85 499.26 220.28 531.21 255.07 532.84 C 256.02 532.84 256.97 532.93 257.89 532.93 C 263.330236 532.940623 268.747725 532.227707 274 530.81 C 292 526 308.89 513 320 492 L 320 491.95 C 320.05257 491.866644 320.099347 491.779773 320.14 491.69 C 327.06 478.5 331.7 462.17 332.86 442.69 C 332.86 442.21 332.93 441.69 332.93 441.23 C 333.04 439.29 333.11 437.23 333.11 435.23 C 333.11 434.52 333.18 433.77 333.18 433.02 C 333.18 424 327.38 416.75 320.25 416.75 Z " style="stroke: none; stroke-linecap: butt; stroke-width: 1; fill: rgb(45%,45%,45%); fill-rule: evenodd;"/>
								</g>
							</g>
						</g>
					</g>
				</g>
			</g>
			<g transform="">
				<g transform=" matrix(1,0,0,-1,0,639)">
					<g transform="">
						<rect x="0.0" y="0.0" width="640.0" height="639.0" style="stroke: none; stroke-linecap: butt; stroke-width: 1; fill: none; fill-rule: evenodd;"/>
					</g>
					<g transform="">
						<g transform=" matrix(1,0,0,1,-0.5,0.5)">
							<g transform="">
								<path d="M 550.86 262.26 C 550.39 260.73 549.44 258.56 548.27 258.26 C 546.27 257.69 542.94 257.5 541.92 258.67 C 540.16 260.67 539.32 263.81 538.86 266.59 C 537.57 274.38 536.68 282.23 535.63 290.06 L 534.93 289.97 C 533.72 299.04 531.93 308.08 531.41 317.19 C 530.48 332.4 539.85 343.6 553 344 C 559.56 344.19 562.54 342.48 563.53 336.08 C 564.804693 328.725446 565.330715 321.260635 565.1 313.8 C 564.18 295.64 556.12 279.3 550.86 262.26 Z " style="stroke: none; stroke-linecap: butt; stroke-width: 1; fill: rgb(57%,83%,96%); fill-rule: evenodd;"/>
							</g>
						</g>
					</g>
				</g>
			</g>
		</g>
	</g>
</svg>
