<?xml version="1.0" encoding="utf-8"?>
<!DOCTYPE svg
  PUBLIC '-//W3C//DTD SVG 1.0//EN'
  'http://www.w3.org/TR/2001/REC-SVG-20010904/DTD/svg10.dtd'>
<svg width="640" height="640" preserveAspectRatio="xMinYMin meet" viewBox="0 0 640 640" xmlns="http://www.w3.org/2000/svg" version="1.0" fill-rule="evenodd" xmlns:xlink="http://www.w3.org/1999/xlink">
	<title>...</title>
	<desc>...</desc>
	<clipPath id="clip">
		<rect x="0" y="0" width="640" height="640"/>
	</clipPath>
	<g id="group" transform="scale(1,-1) translate(0,-640)" style="clip-path: url(#clip)">
		<g transform="">
			<g transform="">
				<g transform=" matrix(1,0,0,-1,0,639)">
					<g transform="">
						<rect x="0.0" y="0.0" width="640.0" height="639.0" style="stroke: none; stroke-linecap: butt; stroke-width: 1; fill: none; fill-rule: evenodd;"/>
					</g>
					<g transform="">
						<g transform="">
							<circle cx="314.68" cy="320.5" r="289.17" style="stroke: rgb(34%,23%,37%); stroke-linecap: butt; stroke-width: 16.0; fill: rgb(100%,85%,47%); fill-rule: evenodd;"/>
						</g>
						<circle cx="319.5" cy="320.5" r="300.0" style="stroke: none; stroke-linecap: butt; stroke-width: 1; fill: rgb(80%,80%,80%); fill-rule: evenodd; fill-opacity: 0.19;"/>
					</g>
				</g>
			</g>
			<g transform="">
				<g transform=" matrix(1,0,0,-1,0,639)">
					<g transform="">
						<rect x="0.0" y="0.0" width="640.0" height="639.0" style="stroke: none; stroke-linecap: butt; stroke-width: 1; fill: none; fill-rule: evenodd;"/>
					</g>
					<g transform="">
						<g transform="">
							<g transform=" matrix(1,0,0,1,-0.5,0.5)">
								<g transform="">
									<path d="M 226 263.48 C 220.81 258.13 215.52 252.6 210 247.35 C 215.44 242.13 220.69 236.62 225.84 231.35 C 232.26 224.72 242.3 217.47 243.34 207.88 C 243.51 206.33 243.2 204.54 241.69 203.76 L 239.59 202.67 C 238.37 202.04 237.02 202.67 236.08 203.46 C 222.91 214.03 208.57 223.63 196.16 235.2 C 183.58 223.3 168.93 213.51 155.48 202.7 C 154.557387 201.804904 153.196949 201.531253 152 202 L 150 203.09 C 148.48 203.92 148.37 205.76 148.55 207.29 C 149.68 216.81 160 224.22 166.39 230.8 C 171.58 236.15 176.87 241.68 182.39 246.93 C 176.95 252.15 171.7 257.66 166.55 262.98 C 160.13 269.61 150.09 276.86 149.05 286.45 C 148.88 288 149.2 289.79 150.7 290.57 L 152.81 291.66 C 154.03 292.29 155.37 291.66 156.31 290.87 C 169.49 280.3 183.82 270.7 196.23 259.13 C 208.81 271.03 223.46 280.82 236.91 291.63 C 237.861705 292.522261 239.251702 292.765707 240.45 292.25 L 242.38 291.19 C 243.9 290.36 244.01 288.52 243.83 287 C 242.68 277.47 232.36 270.06 226 263.48 Z " style="stroke: none; stroke-linecap: butt; stroke-width: 1; fill: rgb(45%,45%,45%); fill-rule: evenodd;"/>
								</g>
							</g>
							<g transform=" matrix(1,0,0,1,-0.5,0.5)">
								<g transform="">
									<path d="M 464 263.48 C 458.81 258.13 453.52 252.6 448 247.35 C 453.45 242.13 458.69 236.62 463.84 231.35 C 470.26 224.72 480.3 217.47 481.34 207.88 C 481.51 206.33 481.2 204.54 479.69 203.76 L 477.59 202.67 C 476.37 202.04 475.03 202.67 474.09 203.46 C 460.91 214.03 446.57 223.63 434.16 235.2 C 421.58 223.3 406.93 213.51 393.48 202.7 C 392.528295 201.807739 391.138298 201.564293 389.94 202.08 L 388 203.09 C 386.48 203.92 386.37 205.76 386.55 207.29 C 387.68 216.81 398 224.22 404.39 230.8 C 409.58 236.15 414.87 241.68 420.39 246.93 C 414.95 252.15 409.7 257.66 404.55 262.98 C 398.13 269.61 388.09 276.86 387.05 286.45 C 386.88 288 387.2 289.79 388.7 290.57 L 390.81 291.66 C 392.03 292.29 393.37 291.66 394.31 290.87 C 407.49 280.3 421.83 270.7 434.24 259.13 C 446.81 271.03 461.47 280.82 474.91 291.63 C 475.861705 292.522261 477.251702 292.765707 478.45 292.25 L 480.38 291.19 C 481.9 290.36 482.01 288.52 481.83 287 C 480.66 277.47 470.34 270.06 464 263.48 Z " style="stroke: none; stroke-linecap: butt; stroke-width: 1; fill: rgb(45%,45%,45%); fill-rule: evenodd;"/>
								</g>
							</g>
						</g>
					</g>
				</g>
			</g>
			<g transform="">
				<g transform=" matrix(1,0,0,-1,0,639)">
					<g transform="">
						<rect x="0.0" y="0.0" width="640.0" height="639.0" style="stroke: none; stroke-linecap: butt; stroke-width: 1; fill: none; fill-rule: evenodd;"/>
					</g>
					<g transform="">
						<g transform="">
							<g transform="">
								<g transform=" matrix(1,0,0,1,-0.5,0.5)">
									<g transform="">
										<path d="M 137.24 143.6 C 137.24 143.6 157.16 114.74 197.49 115.38 " style="stroke: rgb(45%,45%,45%); stroke-linecap: round; stroke-width: 16.0; fill: none; fill-rule: evenodd;"/>
									</g>
								</g>
							</g>
							<g transform=" matrix(1,0,0,1,-0.5,0.5)">
								<g transform="">
									<path d="M 489.42 149.66 C 489.42 149.66 469.5 120.8 429.18 121.44 " style="stroke: rgb(45%,45%,45%); stroke-linecap: round; stroke-width: 16.0; fill: none; fill-rule: evenodd;"/>
								</g>
							</g>
						</g>
					</g>
				</g>
			</g>
			<g transform="">
				<g transform=" matrix(1,0,0,-1,0,639)">
					<g transform="">
						<rect x="0.0" y="0.0" width="640.0" height="639.0" style="stroke: none; stroke-linecap: butt; stroke-width: 1; fill: none; fill-rule: evenodd;"/>
					</g>
					<g transform="">
						<g transform=" matrix(1,0,0,1,-0.5,0.5)">
							<g transform="">
								<path d="M 429.3 448.23 C 429.528206 450.521441 428.22214 452.690081 426.09 453.56 C 426.09 453.56 422.88 454.76 417.35 456.97 C 411.83 458.88 403.89 462.39 394.05 464.6 C 389.05 465.81 383.71 467.11 377.98 468.42 C 374.47 469.22 370.85 469.83 367.04 470.33 C 368.54 483.59 365.04 497.65 357.3 507.69 C 348.387722 519.299454 334.57583 526.09449 319.94 526.07 L 319.13 526.07 C 304.206943 525.88512 290.261916 518.611875 281.57 506.48 C 274.44 496.54 271.43 483.08 272.83 470.33 C 269.12 469.83 265.4 469.22 261.89 468.42 C 256.063333 467.086667 250.64 465.78 245.62 464.5 C 241.144987 463.514938 236.746897 462.208211 232.46 460.59 C 228.64 459.183333 225.326667 457.976667 222.52 456.97 C 217.09 454.86 213.98 453.56 213.98 453.56 C 212.681185 453.079397 211.635496 452.088414 211.085864 450.817271 C 210.536231 449.546129 210.5305 448.105476 211.07 446.83 C 211.884654 444.644459 214.068793 443.281426 216.39 443.51 L 225.53 444.32 C 231.26 444.82 239.79 446.53 249.33 447.03 C 254.15 447.43 259.33 447.83 264.8 448.43 C 270.27 449.03 276.15 449.04 282.17 449.54 C 294.23 450.54 307.08 450.44 319.94 450.84 C 332.79 450.44 345.65 450.54 357.7 449.54 C 363.7 449.04 369.65 449.14 375.17 448.43 C 380.69 447.72 385.92 447.33 390.74 447.03 C 400.48 446.33 408.51 444.82 414.24 444.42 C 420.06 443.81 423.68 443.51 423.68 443.51 C 426.535231 443.26173 429.051232 445.374813 429.3 448.23 Z " style="stroke: none; stroke-linecap: butt; stroke-width: 1; fill: rgb(58%,52%,52%); fill-rule: evenodd;"/>
							</g>
						</g>
						<g transform=" matrix(1,0,0,1,-0.5,0.5)">
							<g transform="">
								<path d="M 340.22 473.44 L 325.36 474.04 C 325.26 478.04 324.66 482.18 324.36 486.04 C 324.06 491.46 324.16 497.69 321.05 502.31 C 319.64 504.41 317.53 503.61 316.63 501.6 C 314.02 495.6 315.02 488.35 315.33 481.92 C 315.43 479.31 315.43 476.7 315.53 474.08 L 299.66 473.48 C 296.44 473.38 293.33 473.08 290.22 472.68 C 289.41 481.11 291.42 490.05 295.94 496.38 C 301.473314 503.845737 310.149393 508.331455 319.44 508.53 L 319.95 508.53 C 329.108311 508.502589 337.740698 504.247291 343.34 497 C 348.06 490.78 350.34 481.84 349.76 473.3 L 342.43 473.2 C 341.73 473.24 341 473.44 340.22 473.44 Z " style="stroke: none; stroke-linecap: butt; stroke-width: 1; fill: rgb(98%,77%,80%); fill-rule: evenodd;"/>
							</g>
						</g>
					</g>
				</g>
			</g>
			<g transform="">
				<g transform=" matrix(1,0,0,-1,0,639)">
					<g transform="">
						<rect x="0.0" y="0.0" width="640.0" height="639.0" style="stroke: none; stroke-linecap: butt; stroke-width: 1; fill: none; fill-rule: evenodd;"/>
					</g>
					<g transform="">
						<g transform="">
							<g transform=" matrix(1,0,0,1,-0.5,0.5)">
								<g transform="">
									<path d="M 111.16 427.89 C 92.36 427.89 77.16 440.12 77.16 455.16 C 77.16 470.2 92.45 482.38 111.26 482.36 C 130.07 482.34 145.26 470.12 145.26 455.08 C 145.26 440.04 130 427.87 111.16 427.89 Z " style="stroke: none; stroke-linecap: butt; stroke-width: 1; fill: rgb(98%,77%,80%); fill-rule: evenodd;"/>
								</g>
							</g>
							<g transform=" matrix(1,0,0,1,-0.5,0.5)">
								<g transform="">
									<path d="M 525.46 428.36 C 506.98 425.57 489.18 435.29 485.69 450.07 C 482.2 464.85 494.35 479.07 512.83 481.89 C 531.31 484.71 549.11 474.95 552.6 460.17 C 556.09 445.39 543.93 431.15 525.46 428.36 Z " style="stroke: none; stroke-linecap: butt; stroke-width: 1; fill: rgb(98%,77%,80%); fill-rule: evenodd;"/>
								</g>
							</g>
						</g>
					</g>
				</g>
			</g>
		</g>
	</g>
</svg>
