<?xml version="1.0" encoding="utf-8"?>
<!DOCTYPE svg
  PUBLIC '-//W3C//DTD SVG 1.0//EN'
  'http://www.w3.org/TR/2001/REC-SVG-20010904/DTD/svg10.dtd'>
<svg width="640" height="640" preserveAspectRatio="xMinYMin meet" viewBox="0 0 640 640" xmlns="http://www.w3.org/2000/svg" version="1.0" fill-rule="evenodd" xmlns:xlink="http://www.w3.org/1999/xlink">
	<title>...</title>
	<desc>...</desc>
	<clipPath id="clip">
		<rect x="0" y="0" width="640" height="640"/>
	</clipPath>
	<g id="group" transform="scale(1,-1) translate(0,-640)" style="clip-path: url(#clip)">
		<g transform="">
			<g transform="">
				<g transform=" matrix(1,0,0,-1,0,639)">
					<g transform="">
						<rect x="0.0" y="0.0" width="640.0" height="639.0" style="stroke: none; stroke-linecap: butt; stroke-width: 1; fill: none; fill-rule: evenodd;"/>
					</g>
					<g transform="">
						<g transform="">
							<circle cx="314.68" cy="320.5" r="289.17" style="stroke: rgb(34%,23%,37%); stroke-linecap: butt; stroke-width: 16.0; fill: rgb(100%,85%,47%); fill-rule: evenodd;"/>
						</g>
						<circle cx="319.5" cy="320.5" r="300.0" style="stroke: none; stroke-linecap: butt; stroke-width: 1; fill: rgb(80%,80%,80%); fill-rule: evenodd; fill-opacity: 0.19;"/>
					</g>
				</g>
			</g>
			<g transform="">
				<g transform=" matrix(1,0,0,-1,0,639)">
					<g transform="">
						<rect x="0.0" y="0.0" width="640.0" height="639.0" style="stroke: none; stroke-linecap: butt; stroke-width: 1; fill: none; fill-rule: evenodd;"/>
					</g>
					<g transform="">
						<g transform="">
							<g transform="">
								<g transform="">
									<circle cx="445.73" cy="273.46" r="72.99" style="stroke: none; stroke-linecap: butt; stroke-width: 1; fill: rgb(44%,44%,0%); fill-rule: evenodd;"/>
								</g>
								<g transform="">
									<g transform=" matrix(0.352658,-0.935752,0.935752,0.352658,16.06,637.64)">
										<ellipse cx="468.74" cy="306.6" rx="20.19999999999999" ry="19.69999999999999" style="stroke: none; stroke-linecap: butt; stroke-width: 1; fill: rgb(100%,100%,100%); fill-rule: evenodd; fill-opacity: 0.76;"/>
									</g>
									<g transform=" matrix(0.800627,-0.599163,0.599163,0.800627,-64.06,308.1)">
										<ellipse cx="430.47" cy="249.31" rx="50.74000000000001" ry="32.58999999999999" style="stroke: none; stroke-linecap: butt; stroke-width: 1; fill: rgb(100%,100%,100%); fill-rule: evenodd; fill-opacity: 0.84;"/>
									</g>
								</g>
							</g>
							<g transform="">
								<g transform="">
									<g transform="">
										<circle cx="193.27" cy="280.18" r="72.99" style="stroke: none; stroke-linecap: butt; stroke-width: 1; fill: rgb(44%,44%,0%); fill-rule: evenodd;"/>
									</g>
								</g>
								<g transform="">
									<g transform="">
										<g transform=" matrix(0.352658,-0.935752,0.935752,0.352658,-156.66,411.4)">
											<ellipse cx="218.88" cy="318.31" rx="20.19999999999999" ry="19.69999999999999" style="stroke: none; stroke-linecap: butt; stroke-width: 1; fill: rgb(100%,100%,100%); fill-rule: evenodd; fill-opacity: 0.76;"/>
										</g>
										<g transform=" matrix(0.800627,-0.599163,0.599163,0.800627,-120.88,160.73)">
											<ellipse cx="180.6" cy="261.01" rx="50.74000000000001" ry="32.59000000000002" style="stroke: none; stroke-linecap: butt; stroke-width: 1; fill: rgb(100%,100%,100%); fill-rule: evenodd; fill-opacity: 0.84;"/>
										</g>
									</g>
								</g>
							</g>
						</g>
					</g>
				</g>
			</g>
			<g transform="">
				<g transform=" matrix(1,0,0,-1,0,639)">
					<g transform="">
						<rect x="0.0" y="0.0" width="640.0" height="639.0" style="stroke: none; stroke-linecap: butt; stroke-width: 1; fill: none; fill-rule: evenodd;"/>
					</g>
					<g transform="">
						<g transform="">
							<g transform=" matrix(1,0,0,1,-0.5,0.5)">
								<g transform="">
									<path d="M 405 190.54 C 396.0345 190.5336 387.105067 189.404823 378.42 187.18 C 375.813216 186.517258 374.237258 183.866784 374.9 181.26 C 375.562742 178.653216 378.213216 177.077258 380.82 177.74 C 418.21 187.23 457.05 174.45 499.56 138.66 C 501.62982 137.060986 504.592264 137.378132 506.276691 139.379059 C 507.961117 141.379986 507.768512 144.353126 505.84 146.12 C 470.55 175.86 437.31 190.54 405 190.54 Z " style="stroke: rgb(45%,45%,45%); stroke-linecap: butt; stroke-width: 7.0; fill: rgb(45%,45%,45%); fill-rule: evenodd;"/>
								</g>
							</g>
							<g transform=" matrix(1,0,0,1,-0.5,0.5)">
								<g transform="">
									<path d="M 225.33 190.54 C 193.05 190.54 159.82 175.86 124.49 146.12 C 123.071637 145.024261 122.368073 143.239187 122.657413 141.470379 C 122.946753 139.701572 124.182427 138.233716 125.876001 137.647025 C 127.569574 137.060334 129.44847 137.449233 130.77 138.66 C 173.28 174.45 212.12 187.23 249.51 177.74 C 252.116784 177.077258 254.767258 178.653216 255.43 181.26 C 256.092742 183.866784 254.516784 186.517258 251.91 187.18 C 243.225169 189.406064 234.29558 190.53486 225.33 190.54 Z " style="stroke: rgb(45%,45%,45%); stroke-linecap: butt; stroke-width: 7.0; fill: rgb(45%,45%,45%); fill-rule: evenodd;"/>
								</g>
							</g>
						</g>
					</g>
				</g>
			</g>
			<g transform="">
				<g transform=" matrix(1,0,0,-1,0,639)">
					<g transform="">
						<rect x="0.0" y="0.0" width="640.0" height="639.0" style="stroke: none; stroke-linecap: butt; stroke-width: 1; fill: none; fill-rule: evenodd;"/>
					</g>
					<g transform="">
						<g transform=" matrix(1,0,0,1,-0.5,0.5)">
							<g transform="">
								<path d="M 451.47 441.49 C 451.47 497.43 391.47 541.31 315.18 541.31 C 238.89 541.31 178.89 497.43 178.89 441.49 C 178.955615 431.520307 187.030212 423.459086 197 423.41 L 433.39 423.41 C 443.348075 423.475444 451.404556 431.531925 451.47 441.49 Z " style="stroke: none; stroke-linecap: butt; stroke-width: 1; fill: rgb(58%,52%,52%); fill-rule: evenodd;"/>
							</g>
						</g>
						<g transform=" matrix(1,0,0,1,-0.5,0.5)">
							<g transform="">
								<path d="M 424.35 449.63 C 424.35 494.43 376.35 529.63 315.18 529.63 C 254.01 529.63 206 494.43 206 449.63 C 206.049063 441.651699 212.501735 435.194571 220.48 435.14 L 409.87 435.14 C 417.848265 435.194571 424.300937 441.651699 424.35 449.63 Z " style="stroke: none; stroke-linecap: butt; stroke-width: 1; fill: rgb(95%,83%,83%); fill-rule: evenodd;"/>
							</g>
						</g>
					</g>
				</g>
			</g>
			<g transform="">
				<g transform=" matrix(1,0,0,-1,0,639)">
					<g transform="">
						<rect x="0.0" y="0.0" width="640.0" height="639.0" style="stroke: none; stroke-linecap: butt; stroke-width: 1; fill: none; fill-rule: evenodd;"/>
					</g>
					<g transform="">
						<g transform=" matrix(1,0,0,1,-0.5,0.5)">
							<g transform="">
								<path d="M 550.86 262.26 C 550.39 260.73 549.44 258.56 548.27 258.26 C 546.27 257.69 542.94 257.5 541.92 258.67 C 540.16 260.67 539.32 263.81 538.86 266.59 C 537.57 274.38 536.68 282.23 535.63 290.06 L 534.93 289.97 C 533.72 299.04 531.93 308.08 531.41 317.19 C 530.48 332.4 539.85 343.6 553 344 C 559.56 344.19 562.54 342.48 563.53 336.08 C 564.804693 328.725446 565.330715 321.260635 565.1 313.8 C 564.18 295.64 556.12 279.3 550.86 262.26 Z " style="stroke: none; stroke-linecap: butt; stroke-width: 1; fill: rgb(57%,83%,96%); fill-rule: evenodd;"/>
							</g>
						</g>
					</g>
				</g>
			</g>
		</g>
	</g>
</svg>
