<?xml version="1.0" encoding="utf-8"?>
<!DOCTYPE svg
  PUBLIC '-//W3C//DTD SVG 1.0//EN'
  'http://www.w3.org/TR/2001/REC-SVG-20010904/DTD/svg10.dtd'>
<svg width="640" height="640" preserveAspectRatio="xMinYMin meet" viewBox="0 0 640 640" xmlns="http://www.w3.org/2000/svg" version="1.0" fill-rule="evenodd" xmlns:xlink="http://www.w3.org/1999/xlink">
	<title>...</title>
	<desc>...</desc>
	<clipPath id="clip">
		<rect x="0" y="0" width="640" height="640"/>
	</clipPath>
	<g id="group" transform="scale(1,-1) translate(0,-640)" style="clip-path: url(#clip)">
		<g transform="">
			<g transform="">
				<g transform=" matrix(1,0,0,-1,0,639)">
					<g transform="">
						<rect x="0.0" y="0.0" width="640.0" height="639.0" style="stroke: none; stroke-linecap: butt; stroke-width: 1; fill: none; fill-rule: evenodd;"/>
					</g>
					<g transform="">
						<g transform="">
							<circle cx="314.68" cy="320.5" r="289.17" style="stroke: rgb(34%,23%,37%); stroke-linecap: butt; stroke-width: 16.0; fill: rgb(100%,85%,47%); fill-rule: evenodd;"/>
						</g>
						<circle cx="319.5" cy="320.5" r="300.0" style="stroke: none; stroke-linecap: butt; stroke-width: 1; fill: rgb(80%,80%,80%); fill-rule: evenodd; fill-opacity: 0.19;"/>
					</g>
				</g>
			</g>
			<g transform="">
				<g transform=" matrix(1,0,0,-1,0,639)">
					<g transform="">
						<rect x="0.0" y="0.0" width="640.0" height="639.0" style="stroke: none; stroke-linecap: butt; stroke-width: 1; fill: none; fill-rule: evenodd;"/>
					</g>
					<g transform="">
						<g transform="">
							<g transform=" matrix(1,0,0,1,-0.5,0.5)">
								<g transform="">
									<path d="M 226 263.48 C 220.81 258.13 215.52 252.6 210 247.35 C 215.44 242.13 220.69 236.62 225.84 231.35 C 232.26 224.72 242.3 217.47 243.34 207.88 C 243.51 206.33 243.2 204.54 241.69 203.76 L 239.59 202.67 C 238.37 202.04 237.02 202.67 236.08 203.46 C 222.91 214.03 208.57 223.63 196.16 235.2 C 183.58 223.3 168.93 213.51 155.48 202.7 C 154.557387 201.804904 153.196949 201.531253 152 202 L 150 203.09 C 148.48 203.92 148.37 205.76 148.55 207.29 C 149.68 216.81 160 224.22 166.39 230.8 C 171.58 236.15 176.87 241.68 182.39 246.93 C 176.95 252.15 171.7 257.66 166.55 262.98 C 160.13 269.61 150.09 276.86 149.05 286.45 C 148.88 288 149.2 289.79 150.7 290.57 L 152.81 291.66 C 154.03 292.29 155.37 291.66 156.31 290.87 C 169.49 280.3 183.82 270.7 196.23 259.13 C 208.81 271.03 223.46 280.82 236.91 291.63 C 237.861705 292.522261 239.251702 292.765707 240.45 292.25 L 242.38 291.19 C 243.9 290.36 244.01 288.52 243.83 287 C 242.68 277.47 232.36 270.06 226 263.48 Z " style="stroke: none; stroke-linecap: butt; stroke-width: 1; fill: rgb(45%,45%,45%); fill-rule: evenodd;"/>
								</g>
							</g>
							<g transform=" matrix(1,0,0,1,-0.5,0.5)">
								<g transform="">
									<path d="M 464 263.48 C 458.81 258.13 453.52 252.6 448 247.35 C 453.45 242.13 458.69 236.62 463.84 231.35 C 470.26 224.72 480.3 217.47 481.34 207.88 C 481.51 206.33 481.2 204.54 479.69 203.76 L 477.59 202.67 C 476.37 202.04 475.03 202.67 474.09 203.46 C 460.91 214.03 446.57 223.63 434.16 235.2 C 421.58 223.3 406.93 213.51 393.48 202.7 C 392.528295 201.807739 391.138298 201.564293 389.94 202.08 L 388 203.09 C 386.48 203.92 386.37 205.76 386.55 207.29 C 387.68 216.81 398 224.22 404.39 230.8 C 409.58 236.15 414.87 241.68 420.39 246.93 C 414.95 252.15 409.7 257.66 404.55 262.98 C 398.13 269.61 388.09 276.86 387.05 286.45 C 386.88 288 387.2 289.79 388.7 290.57 L 390.81 291.66 C 392.03 292.29 393.37 291.66 394.31 290.87 C 407.49 280.3 421.83 270.7 434.24 259.13 C 446.81 271.03 461.47 280.82 474.91 291.63 C 475.861705 292.522261 477.251702 292.765707 478.45 292.25 L 480.38 291.19 C 481.9 290.36 482.01 288.52 481.83 287 C 480.66 277.47 470.34 270.06 464 263.48 Z " style="stroke: none; stroke-linecap: butt; stroke-width: 1; fill: rgb(45%,45%,45%); fill-rule: evenodd;"/>
								</g>
							</g>
						</g>
					</g>
				</g>
			</g>
			<g transform="">
				<g transform=" matrix(1,0,0,-1,0,639)">
					<g transform="">
						<rect x="0.0" y="0.0" width="640.0" height="639.0" style="stroke: none; stroke-linecap: butt; stroke-width: 1; fill: none; fill-rule: evenodd;"/>
					</g>
					<g transform="">
						<g transform="">
							<g transform=" matrix(1,0,0,1,-0.5,0.5)">
								<g transform="">
									<path d="M 405 190.54 C 396.0345 190.5336 387.105067 189.404823 378.42 187.18 C 375.813216 186.517258 374.237258 183.866784 374.9 181.26 C 375.562742 178.653216 378.213216 177.077258 380.82 177.74 C 418.21 187.23 457.05 174.45 499.56 138.66 C 501.62982 137.060986 504.592264 137.378132 506.276691 139.379059 C 507.961117 141.379986 507.768512 144.353126 505.84 146.12 C 470.55 175.86 437.31 190.54 405 190.54 Z " style="stroke: rgb(45%,45%,45%); stroke-linecap: butt; stroke-width: 7.0; fill: rgb(45%,45%,45%); fill-rule: evenodd;"/>
								</g>
							</g>
							<g transform=" matrix(1,0,0,1,-0.5,0.5)">
								<g transform="">
									<path d="M 225.33 190.54 C 193.05 190.54 159.82 175.86 124.49 146.12 C 123.071637 145.024261 122.368073 143.239187 122.657413 141.470379 C 122.946753 139.701572 124.182427 138.233716 125.876001 137.647025 C 127.569574 137.060334 129.44847 137.449233 130.77 138.66 C 173.28 174.45 212.12 187.23 249.51 177.74 C 252.116784 177.077258 254.767258 178.653216 255.43 181.26 C 256.092742 183.866784 254.516784 186.517258 251.91 187.18 C 243.225169 189.406064 234.29558 190.53486 225.33 190.54 Z " style="stroke: rgb(45%,45%,45%); stroke-linecap: butt; stroke-width: 7.0; fill: rgb(45%,45%,45%); fill-rule: evenodd;"/>
								</g>
							</g>
						</g>
					</g>
				</g>
			</g>
			<g transform="">
				<g transform=" matrix(1,0,0,-1,0,639)">
					<g transform="">
						<rect x="0.0" y="0.0" width="640.0" height="639.0" style="stroke: none; stroke-linecap: butt; stroke-width: 1; fill: none; fill-rule: evenodd;"/>
					</g>
					<g transform="">
						<g transform="">
							<g transform=" matrix(1,0,0,1,-0.5,0.5)">
								<g transform="">
									<path d="M 270.25 360.94 L 357.07 356 C 357.95 355.65 419.79 527.46 366.38 534.39 C 323.43 539.97 222.08 536.39 245.17 534.14 C 245.17 534.14 276.31 540.89 270.25 360.93 Z " style="stroke: rgb(58%,52%,52%); stroke-linecap: round; stroke-width: 15.63; fill: rgb(95%,83%,83%); fill-rule: evenodd;"/>
								</g>
							</g>
						</g>
					</g>
				</g>
			</g>
			<g transform="">
				<g transform=" matrix(1,0,0,-1,0,639)">
					<g transform="">
						<rect x="0.0" y="0.0" width="640.0" height="639.0" style="stroke: none; stroke-linecap: butt; stroke-width: 1; fill: none; fill-rule: evenodd;"/>
					</g>
					<g transform="">
						<g transform="">
							<g transform=" matrix(1,0,0,1,-0.5,0.5)">
								<g transform="">
									<path d="M 111.16 427.89 C 92.36 427.89 77.16 440.12 77.16 455.16 C 77.16 470.2 92.45 482.38 111.26 482.36 C 130.07 482.34 145.26 470.12 145.26 455.08 C 145.26 440.04 130 427.87 111.16 427.89 Z " style="stroke: none; stroke-linecap: butt; stroke-width: 1; fill: rgb(98%,77%,80%); fill-rule: evenodd;"/>
								</g>
							</g>
							<g transform=" matrix(1,0,0,1,-0.5,0.5)">
								<g transform="">
									<path d="M 525.46 428.36 C 506.98 425.57 489.18 435.29 485.69 450.07 C 482.2 464.85 494.35 479.07 512.83 481.89 C 531.31 484.71 549.11 474.95 552.6 460.17 C 556.09 445.39 543.93 431.15 525.46 428.36 Z " style="stroke: none; stroke-linecap: butt; stroke-width: 1; fill: rgb(98%,77%,80%); fill-rule: evenodd;"/>
								</g>
							</g>
						</g>
					</g>
				</g>
			</g>
		</g>
	</g>
</svg>
