<?xml version="1.0" encoding="utf-8"?>
<!DOCTYPE svg
  PUBLIC '-//W3C//DTD SVG 1.0//EN'
  'http://www.w3.org/TR/2001/REC-SVG-20010904/DTD/svg10.dtd'>
<svg width="640" height="640" preserveAspectRatio="xMinYMin meet" viewBox="0 0 640 640" xmlns="http://www.w3.org/2000/svg" version="1.0" fill-rule="evenodd" xmlns:xlink="http://www.w3.org/1999/xlink">
	<title>...</title>
	<desc>...</desc>
	<clipPath id="clip">
		<rect x="0" y="0" width="640" height="640"/>
	</clipPath>
	<g id="group" transform="scale(1,-1) translate(0,-640)" style="clip-path: url(#clip)">
		<g transform="">
			<g transform="">
				<g transform=" matrix(1,0,0,-1,0,639)">
					<g transform="">
						<rect x="0.0" y="0.0" width="640.0" height="639.0" style="stroke: none; stroke-linecap: butt; stroke-width: 1; fill: none; fill-rule: evenodd;"/>
					</g>
					<g transform="">
						<g transform="">
							<circle cx="314.68" cy="320.5" r="289.17" style="stroke: rgb(34%,23%,37%); stroke-linecap: butt; stroke-width: 16.0; fill: rgb(100%,85%,47%); fill-rule: evenodd;"/>
						</g>
						<circle cx="319.5" cy="320.5" r="300.0" style="stroke: none; stroke-linecap: butt; stroke-width: 1; fill: rgb(80%,80%,80%); fill-rule: evenodd; fill-opacity: 0.19;"/>
					</g>
				</g>
			</g>
			<g transform="">
				<g transform=" matrix(1,0,0,-1,0,639)">
					<g transform="">
						<rect x="0.0" y="0.0" width="640.0" height="639.0" style="stroke: none; stroke-linecap: butt; stroke-width: 1; fill: none; fill-rule: evenodd;"/>
					</g>
					<g transform="">
						<g transform="">
							<g transform=" matrix(0.015358,-0.999882,0.999882,0.015358,-77.67,494.61)">
								<ellipse cx="212.31" cy="286.24" rx="60.120000000000005" ry="39.579999999999984" style="stroke: none; stroke-linecap: butt; stroke-width: 1; fill: rgb(45%,45%,45%); fill-rule: evenodd;"/>
							</g>
							<g transform=" matrix(0.015358,-0.999882,0.999882,0.015358,134.39,709.96)">
								<ellipse cx="427.69" cy="286.24" rx="60.120000000000005" ry="39.579999999999984" style="stroke: none; stroke-linecap: butt; stroke-width: 1; fill: rgb(45%,45%,45%); fill-rule: evenodd;"/>
							</g>
						</g>
					</g>
				</g>
			</g>
			<g transform="">
				<g transform=" matrix(1,0,0,-1,0,639)">
					<g transform="">
						<rect x="0.0" y="0.0" width="640.0" height="639.0" style="stroke: none; stroke-linecap: butt; stroke-width: 1; fill: none; fill-rule: evenodd;"/>
					</g>
					<g transform="">
						<g transform="">
							<g transform=" matrix(1,0,0,1,-0.5,0.5)">
								<g transform="">
									<path d="M 146.53 152.7 C 147.170887 152.071299 147.772048 151.403343 148.33 150.7 C 148.860638 149.933098 149.512482 149.257612 150.26 148.7 C 151.007758 148.079375 151.807353 147.524007 152.65 147.04 C 153.514904 146.437945 154.452305 145.947406 155.44 145.58 C 156.417517 145.15754 157.419284 144.793565 158.44 144.49 C 159.58 144.35 160.56 143.96 161.73 143.91 C 162.83 143.68 164 143.73 165.14 143.61 C 166.28 143.7 167.44 143.61 168.55 143.81 C 169.72 143.81 170.72 144.18 171.87 144.3 C 172.906422 144.569757 173.925056 144.903736 174.92 145.3 C 175.921181 145.637206 176.878079 146.093831 177.77 146.66 C 178.667163 147.140844 179.511731 147.713944 180.29 148.37 C 181.020978 148.886871 181.691819 149.48392 182.29 150.15 C 183.36 151.26 184.17 152 184.17 152 C 184.501766 151.163282 184.749648 150.295694 184.91 149.41 C 185.17669 148.375514 185.244559 147.299801 185.11 146.24 C 185.064578 144.801244 184.773728 143.380817 184.25 142.04 C 183.670864 140.373164 182.789475 138.827344 181.65 137.48 C 180.396445 135.911784 178.90904 134.5458 177.24 133.43 C 175.440417 132.294365 173.482487 131.431662 171.43 130.87 C 167.209029 129.595186 162.695084 129.672108 158.52 131.09 C 156.486018 131.72209 154.555544 132.648583 152.79 133.84 C 151.156845 135.017203 149.716356 136.440824 148.52 138.06 C 147.434605 139.453439 146.61125 141.032383 146.09 142.72 C 145.596323 144.127656 145.34279 145.608287 145.34 147.1 C 145.237454 148.115879 145.367401 149.141773 145.72 150.1 C 145.930793 150.984014 146.201416 151.852682 146.53 152.7 Z " style="stroke: none; stroke-linecap: butt; stroke-width: 1; fill: rgb(45%,45%,45%); fill-rule: evenodd;"/>
								</g>
							</g>
							<g transform=" matrix(1,0,0,1,-0.5,0.5)">
								<g transform="">
									<path d="M 427.13 152.7 C 427.770887 152.071299 428.372048 151.403343 428.93 150.7 C 429.460638 149.933098 430.112482 149.257612 430.86 148.7 C 431.605787 148.08144 432.401882 147.526181 433.24 147.04 C 434.108415 146.437841 435.049135 145.947323 436.04 145.58 C 437.018003 145.158764 438.019697 144.794815 439.04 144.49 C 440.19 144.35 441.17 143.96 442.34 143.91 C 443.44 143.68 444.61 143.73 445.74 143.61 C 446.89 143.7 448.05 143.61 449.16 143.81 C 450.32 143.81 451.33 144.18 452.47 144.3 C 453.489919 144.5703 454.491885 144.904289 455.47 145.3 C 456.474348 145.637186 457.434559 146.09379 458.33 146.66 C 459.225837 147.143032 460.070188 147.715984 460.85 148.37 C 461.579251 148.889041 462.249864 149.485886 462.85 150.15 C 463.93 151.26 464.73 152 464.73 152 C 465.061766 151.163282 465.309648 150.295694 465.47 149.41 C 465.747873 148.377322 465.81588 147.299413 465.67 146.24 C 465.633365 144.801189 465.34571 143.379832 464.82 142.04 C 464.236747 140.375037 463.355767 138.829933 462.22 137.48 C 460.964027 135.914043 459.476994 134.5484 457.81 133.43 C 456.007875 132.292416 454.046352 131.429615 451.99 130.87 C 447.772408 129.595314 443.261674 129.672241 439.09 131.09 C 437.056018 131.72209 435.125544 132.648583 433.36 133.84 C 431.726845 135.017203 430.286356 136.440824 429.09 138.06 C 428.000808 139.450995 427.177073 141.030668 426.66 142.72 C 426.166323 144.127656 425.91279 145.608287 425.91 147.1 C 425.804963 148.115112 425.931468 149.140828 426.28 150.1 C 426.506308 150.984282 426.790248 151.852805 427.13 152.7 Z " style="stroke: none; stroke-linecap: butt; stroke-width: 1; fill: rgb(45%,45%,45%); fill-rule: evenodd;"/>
								</g>
							</g>
						</g>
					</g>
				</g>
			</g>
			<g transform="">
				<g transform=" matrix(1,0,0,-1,0,639)">
					<g transform="">
						<rect x="0.0" y="0.0" width="640.0" height="639.0" style="stroke: none; stroke-linecap: butt; stroke-width: 1; fill: none; fill-rule: evenodd;"/>
					</g>
					<g transform="">
						<g transform="">
							<g transform=" matrix(1,0,0,1,-0.5,0.5)">
								<g transform="">
									<path d="M 457.14 432.94 C 457.14 499.3 419.68 531.25 384.88 532.88 C 383.97 532.88 383.02 532.97 382.07 532.97 C 376.729495 532.954866 371.412915 532.255847 366.25 530.89 C 348.25 526.13 331.25 513.2 320.14 492.24 C 320.083377 492.166239 320.036335 492.085596 320 492 L 320 491.95 C 313 478.72 308.26 462.26 307.1 442.63 L 307.1 442.45 C 307.1 442.05 307.03 441.66 307.03 441.21 C 306.93 439.27 306.86 437.21 306.86 435.21 C 306.86 434.5 306.86 433.75 306.86 433 C 306.86 425.59 310.86 419.46 316.24 417.61 C 316.24 417.56 316.24 417.56 316.31 417.56 L 317.16 417.3 C 318.00991 417.086264 318.883662 416.982085 319.76 416.99 C 326.86 416.99 332.59 424.31 332.69 433.18 L 332.69 434.59 C 332.69 436.53 332.76 438.47 332.86 440.28 C 332.86 440.59 332.86 440.95 332.93 441.28 L 333.04 442.61 C 335.5 473.45 349.66 491.05 366.25 497.61 C 371.867754 499.831972 377.896448 500.824252 383.93 500.52 C 407.51 499.42 431.27 478.11 431.27 433.01 C 431.27 424.06 437.07 416.82 444.21 416.82 C 451.35 416.82 457.14 424 457.14 432.94 Z " style="stroke: none; stroke-linecap: butt; stroke-width: 1; fill: rgb(45%,45%,45%); fill-rule: evenodd;"/>
								</g>
							</g>
							<g transform=" matrix(1,0,0,1,-0.5,0.5)">
								<g transform="">
									<path d="M 320.25 416.75 C 319.187778 416.752686 318.132223 416.917932 317.12 417.24 L 316.27 417.5 C 316.27 417.5 316.27 417.5 316.2 417.55 C 311.04 419.66 307.31 425.75 307.31 432.94 L 307.31 433.34 L 307.31 434.53 C 307.31 436.47 307.24 438.41 307.13 440.27 C 307.13 440.58 307.13 440.89 307.06 441.19 C 307.056608 441.574287 307.033243 441.958138 306.99 442.34 C 304.6 473.09 290.58 490.79 274.06 497.41 C 268.356164 499.730521 262.208122 500.755195 256.06 500.41 C 232.48 499.31 208.68 478 208.68 432.9 C 208.68 423.95 202.92 416.71 195.78 416.71 C 188.64 416.71 182.85 423.95 182.85 432.9 C 182.85 499.26 220.28 531.21 255.07 532.84 C 256.02 532.84 256.97 532.93 257.89 532.93 C 263.330236 532.940623 268.747725 532.227707 274 530.81 C 292 526 308.89 513 320 492 L 320 491.95 C 320.05257 491.866644 320.099347 491.779773 320.14 491.69 C 327.06 478.5 331.7 462.17 332.86 442.69 C 332.86 442.21 332.93 441.69 332.93 441.23 C 333.04 439.29 333.11 437.23 333.11 435.23 C 333.11 434.52 333.18 433.77 333.18 433.02 C 333.18 424 327.38 416.75 320.25 416.75 Z " style="stroke: none; stroke-linecap: butt; stroke-width: 1; fill: rgb(45%,45%,45%); fill-rule: evenodd;"/>
								</g>
							</g>
						</g>
					</g>
				</g>
			</g>
			<g transform="">
				<g transform=" matrix(1,0,0,-1,0,639)">
					<g transform="">
						<rect x="0.0" y="0.0" width="640.0" height="639.0" style="stroke: none; stroke-linecap: butt; stroke-width: 1; fill: none; fill-rule: evenodd;"/>
					</g>
					<g transform="">
						<g transform=" matrix(1,0,0,1,-0.5,0.5)">
							<g transform="">
								<path d="M 550.86 262.26 C 550.39 260.73 549.44 258.56 548.27 258.26 C 546.27 257.69 542.94 257.5 541.92 258.67 C 540.16 260.67 539.32 263.81 538.86 266.59 C 537.57 274.38 536.68 282.23 535.63 290.06 L 534.93 289.97 C 533.72 299.04 531.93 308.08 531.41 317.19 C 530.48 332.4 539.85 343.6 553 344 C 559.56 344.19 562.54 342.48 563.53 336.08 C 564.804693 328.725446 565.330715 321.260635 565.1 313.8 C 564.18 295.64 556.12 279.3 550.86 262.26 Z " style="stroke: none; stroke-linecap: butt; stroke-width: 1; fill: rgb(57%,83%,96%); fill-rule: evenodd;"/>
							</g>
						</g>
					</g>
				</g>
			</g>
		</g>
	</g>
</svg>
