<?xml version="1.0" encoding="utf-8"?>
<!DOCTYPE svg
  PUBLIC '-//W3C//DTD SVG 1.0//EN'
  'http://www.w3.org/TR/2001/REC-SVG-20010904/DTD/svg10.dtd'>
<svg width="640" height="640" preserveAspectRatio="xMinYMin meet" viewBox="0 0 640 640" xmlns="http://www.w3.org/2000/svg" version="1.0" fill-rule="evenodd" xmlns:xlink="http://www.w3.org/1999/xlink">
	<title>...</title>
	<desc>...</desc>
	<clipPath id="clip">
		<rect x="0" y="0" width="640" height="640"/>
	</clipPath>
	<g id="group" transform="scale(1,-1) translate(0,-640)" style="clip-path: url(#clip)">
		<g transform="">
			<g transform="">
				<g transform=" matrix(1,0,0,-1,0,639)">
					<g transform="">
						<rect x="0.0" y="0.0" width="640.0" height="639.0" style="stroke: none; stroke-linecap: butt; stroke-width: 1; fill: none; fill-rule: evenodd;"/>
					</g>
					<g transform="">
						<g transform="">
							<circle cx="314.68" cy="320.5" r="289.17" style="stroke: rgb(34%,23%,37%); stroke-linecap: butt; stroke-width: 16.0; fill: rgb(100%,85%,47%); fill-rule: evenodd;"/>
						</g>
						<circle cx="319.5" cy="320.5" r="300.0" style="stroke: none; stroke-linecap: butt; stroke-width: 1; fill: rgb(80%,80%,80%); fill-rule: evenodd; fill-opacity: 0.19;"/>
					</g>
				</g>
			</g>
			<g transform="">
				<g transform=" matrix(1,0,0,-1,0,639)">
					<g transform="">
						<rect x="0.0" y="0.0" width="640.0" height="639.0" style="stroke: none; stroke-linecap: butt; stroke-width: 1; fill: none; fill-rule: evenodd;"/>
					</g>
					<g transform="">
						<g transform="">
							<g transform=" matrix(1,0,0,1,-0.5,0.5)">
								<g transform="">
									<path d="M 226 263.48 C 220.81 258.13 215.52 252.6 210 247.35 C 215.44 242.13 220.69 236.62 225.84 231.35 C 232.26 224.72 242.3 217.47 243.34 207.88 C 243.51 206.33 243.2 204.54 241.69 203.76 L 239.59 202.67 C 238.37 202.04 237.02 202.67 236.08 203.46 C 222.91 214.03 208.57 223.63 196.16 235.2 C 183.58 223.3 168.93 213.51 155.48 202.7 C 154.557387 201.804904 153.196949 201.531253 152 202 L 150 203.09 C 148.48 203.92 148.37 205.76 148.55 207.29 C 149.68 216.81 160 224.22 166.39 230.8 C 171.58 236.15 176.87 241.68 182.39 246.93 C 176.95 252.15 171.7 257.66 166.55 262.98 C 160.13 269.61 150.09 276.86 149.05 286.45 C 148.88 288 149.2 289.79 150.7 290.57 L 152.81 291.66 C 154.03 292.29 155.37 291.66 156.31 290.87 C 169.49 280.3 183.82 270.7 196.23 259.13 C 208.81 271.03 223.46 280.82 236.91 291.63 C 237.861705 292.522261 239.251702 292.765707 240.45 292.25 L 242.38 291.19 C 243.9 290.36 244.01 288.52 243.83 287 C 242.68 277.47 232.36 270.06 226 263.48 Z " style="stroke: none; stroke-linecap: butt; stroke-width: 1; fill: rgb(45%,45%,45%); fill-rule: evenodd;"/>
								</g>
							</g>
							<g transform=" matrix(1,0,0,1,-0.5,0.5)">
								<g transform="">
									<path d="M 464 263.48 C 458.81 258.13 453.52 252.6 448 247.35 C 453.45 242.13 458.69 236.62 463.84 231.35 C 470.26 224.72 480.3 217.47 481.34 207.88 C 481.51 206.33 481.2 204.54 479.69 203.76 L 477.59 202.67 C 476.37 202.04 475.03 202.67 474.09 203.46 C 460.91 214.03 446.57 223.63 434.16 235.2 C 421.58 223.3 406.93 213.51 393.48 202.7 C 392.528295 201.807739 391.138298 201.564293 389.94 202.08 L 388 203.09 C 386.48 203.92 386.37 205.76 386.55 207.29 C 387.68 216.81 398 224.22 404.39 230.8 C 409.58 236.15 414.87 241.68 420.39 246.93 C 414.95 252.15 409.7 257.66 404.55 262.98 C 398.13 269.61 388.09 276.86 387.05 286.45 C 386.88 288 387.2 289.79 388.7 290.57 L 390.81 291.66 C 392.03 292.29 393.37 291.66 394.31 290.87 C 407.49 280.3 421.83 270.7 434.24 259.13 C 446.81 271.03 461.47 280.82 474.91 291.63 C 475.861705 292.522261 477.251702 292.765707 478.45 292.25 L 480.38 291.19 C 481.9 290.36 482.01 288.52 481.83 287 C 480.66 277.47 470.34 270.06 464 263.48 Z " style="stroke: none; stroke-linecap: butt; stroke-width: 1; fill: rgb(45%,45%,45%); fill-rule: evenodd;"/>
								</g>
							</g>
						</g>
					</g>
				</g>
			</g>
			<g transform="">
				<g transform=" matrix(1,0,0,-1,0,639)">
					<g transform="">
						<rect x="0.0" y="0.0" width="640.0" height="639.0" style="stroke: none; stroke-linecap: butt; stroke-width: 1; fill: none; fill-rule: evenodd;"/>
					</g>
					<g transform="">
						<g transform="">
							<g transform="">
								<g transform=" matrix(1,0,0,1,-0.5,0.5)">
									<g transform="">
										<path d="M 137.24 143.6 C 137.24 143.6 157.16 114.74 197.49 115.38 " style="stroke: rgb(45%,45%,45%); stroke-linecap: round; stroke-width: 16.0; fill: none; fill-rule: evenodd;"/>
									</g>
								</g>
							</g>
							<g transform=" matrix(1,0,0,1,-0.5,0.5)">
								<g transform="">
									<path d="M 489.42 149.66 C 489.42 149.66 469.5 120.8 429.18 121.44 " style="stroke: rgb(45%,45%,45%); stroke-linecap: round; stroke-width: 16.0; fill: none; fill-rule: evenodd;"/>
								</g>
							</g>
						</g>
					</g>
				</g>
			</g>
			<g transform="">
				<g transform=" matrix(1,0,0,-1,0,639)">
					<g transform="">
						<rect x="0.0" y="0.0" width="640.0" height="639.0" style="stroke: none; stroke-linecap: butt; stroke-width: 1; fill: none; fill-rule: evenodd;"/>
					</g>
					<g transform="">
						<g transform="">
							<g transform=" matrix(1,0,0,1,-0.5,0.5)">
								<g transform="">
									<path d="M 457.14 432.94 C 457.14 499.3 419.68 531.25 384.88 532.88 C 383.97 532.88 383.02 532.97 382.07 532.97 C 376.729495 532.954866 371.412915 532.255847 366.25 530.89 C 348.25 526.13 331.25 513.2 320.14 492.24 C 320.083377 492.166239 320.036335 492.085596 320 492 L 320 491.95 C 313 478.72 308.26 462.26 307.1 442.63 L 307.1 442.45 C 307.1 442.05 307.03 441.66 307.03 441.21 C 306.93 439.27 306.86 437.21 306.86 435.21 C 306.86 434.5 306.86 433.75 306.86 433 C 306.86 425.59 310.86 419.46 316.24 417.61 C 316.24 417.56 316.24 417.56 316.31 417.56 L 317.16 417.3 C 318.00991 417.086264 318.883662 416.982085 319.76 416.99 C 326.86 416.99 332.59 424.31 332.69 433.18 L 332.69 434.59 C 332.69 436.53 332.76 438.47 332.86 440.28 C 332.86 440.59 332.86 440.95 332.93 441.28 L 333.04 442.61 C 335.5 473.45 349.66 491.05 366.25 497.61 C 371.867754 499.831972 377.896448 500.824252 383.93 500.52 C 407.51 499.42 431.27 478.11 431.27 433.01 C 431.27 424.06 437.07 416.82 444.21 416.82 C 451.35 416.82 457.14 424 457.14 432.94 Z " style="stroke: none; stroke-linecap: butt; stroke-width: 1; fill: rgb(45%,45%,45%); fill-rule: evenodd;"/>
								</g>
							</g>
							<g transform=" matrix(1,0,0,1,-0.5,0.5)">
								<g transform="">
									<path d="M 320.25 416.75 C 319.187778 416.752686 318.132223 416.917932 317.12 417.24 L 316.27 417.5 C 316.27 417.5 316.27 417.5 316.2 417.55 C 311.04 419.66 307.31 425.75 307.31 432.94 L 307.31 433.34 L 307.31 434.53 C 307.31 436.47 307.24 438.41 307.13 440.27 C 307.13 440.58 307.13 440.89 307.06 441.19 C 307.056608 441.574287 307.033243 441.958138 306.99 442.34 C 304.6 473.09 290.58 490.79 274.06 497.41 C 268.356164 499.730521 262.208122 500.755195 256.06 500.41 C 232.48 499.31 208.68 478 208.68 432.9 C 208.68 423.95 202.92 416.71 195.78 416.71 C 188.64 416.71 182.85 423.95 182.85 432.9 C 182.85 499.26 220.28 531.21 255.07 532.84 C 256.02 532.84 256.97 532.93 257.89 532.93 C 263.330236 532.940623 268.747725 532.227707 274 530.81 C 292 526 308.89 513 320 492 L 320 491.95 C 320.05257 491.866644 320.099347 491.779773 320.14 491.69 C 327.06 478.5 331.7 462.17 332.86 442.69 C 332.86 442.21 332.93 441.69 332.93 441.23 C 333.04 439.29 333.11 437.23 333.11 435.23 C 333.11 434.52 333.18 433.77 333.18 433.02 C 333.18 424 327.38 416.75 320.25 416.75 Z " style="stroke: none; stroke-linecap: butt; stroke-width: 1; fill: rgb(45%,45%,45%); fill-rule: evenodd;"/>
								</g>
							</g>
						</g>
					</g>
				</g>
			</g>
			<g transform="">
				<g transform=" matrix(1,0,0,-1,0,639)">
					<g transform="">
						<rect x="0.0" y="0.0" width="640.0" height="639.0" style="stroke: none; stroke-linecap: butt; stroke-width: 1; fill: none; fill-rule: evenodd;"/>
					</g>
					<g transform="">
						<g transform="">
							<g transform=" matrix(1,0,0,1,-0.5,0.5)">
								<g transform="">
									<path d="M 111.16 427.89 C 92.36 427.89 77.16 440.12 77.16 455.16 C 77.16 470.2 92.45 482.38 111.26 482.36 C 130.07 482.34 145.26 470.12 145.26 455.08 C 145.26 440.04 130 427.87 111.16 427.89 Z " style="stroke: none; stroke-linecap: butt; stroke-width: 1; fill: rgb(98%,77%,80%); fill-rule: evenodd;"/>
								</g>
							</g>
							<g transform=" matrix(1,0,0,1,-0.5,0.5)">
								<g transform="">
									<path d="M 525.46 428.36 C 506.98 425.57 489.18 435.29 485.69 450.07 C 482.2 464.85 494.35 479.07 512.83 481.89 C 531.31 484.71 549.11 474.95 552.6 460.17 C 556.09 445.39 543.93 431.15 525.46 428.36 Z " style="stroke: none; stroke-linecap: butt; stroke-width: 1; fill: rgb(98%,77%,80%); fill-rule: evenodd;"/>
								</g>
							</g>
						</g>
					</g>
				</g>
			</g>
		</g>
	</g>
</svg>
