<?xml version="1.0" encoding="utf-8"?>
<!DOCTYPE svg
  PUBLIC '-//W3C//DTD SVG 1.0//EN'
  'http://www.w3.org/TR/2001/REC-SVG-20010904/DTD/svg10.dtd'>
<svg width="640" height="640" preserveAspectRatio="xMinYMin meet" viewBox="0 0 640 640" xmlns="http://www.w3.org/2000/svg" version="1.0" fill-rule="evenodd" xmlns:xlink="http://www.w3.org/1999/xlink">
	<title>...</title>
	<desc>...</desc>
	<clipPath id="clip">
		<rect x="0" y="0" width="640" height="640"/>
	</clipPath>
	<g id="group" transform="scale(1,-1) translate(0,-640)" style="clip-path: url(#clip)">
		<g transform="">
			<g transform="">
				<g transform=" matrix(1,0,0,-1,0,639)">
					<g transform="">
						<rect x="0.0" y="0.0" width="640.0" height="639.0" style="stroke: none; stroke-linecap: butt; stroke-width: 1; fill: none; fill-rule: evenodd;"/>
					</g>
					<g transform="">
						<g transform="">
							<circle cx="314.68" cy="320.5" r="289.17" style="stroke: rgb(34%,23%,37%); stroke-linecap: butt; stroke-width: 16.0; fill: rgb(100%,85%,47%); fill-rule: evenodd;"/>
						</g>
						<circle cx="319.5" cy="320.5" r="300.0" style="stroke: none; stroke-linecap: butt; stroke-width: 1; fill: rgb(80%,80%,80%); fill-rule: evenodd; fill-opacity: 0.19;"/>
					</g>
				</g>
			</g>
			<g transform="">
				<g transform=" matrix(1,0,0,-1,0,639)">
					<g transform="">
						<rect x="0.0" y="0.0" width="640.0" height="639.0" style="stroke: none; stroke-linecap: butt; stroke-width: 1; fill: none; fill-rule: evenodd;"/>
					</g>
					<g transform="">
						<g transform="">
							<g transform=" matrix(1,0,0,1,-0.5,0.5)">
								<g transform="">
									<path d="M 496.45 266.6 C 496.45 342.86 371.65 342.86 371.65 266.6 Z " style="stroke: rgb(45%,45%,45%); stroke-linecap: butt; stroke-width: 1; fill: rgb(100%,100%,100%); fill-rule: evenodd;"/>
								</g>
							</g>
							<g transform=" matrix(1,0,0,1,-0.5,0.5)">
								<g transform="">
									<path d="M 434.05 328.48 C 416.63 328.48 400.34 323.02 388.19 313.12 C 374.31 301.81 367 285.72 367 266.6 L 367 261.92 L 501.13 261.92 L 501.13 266.6 C 501.13 285.72 493.79 301.81 479.91 313.12 C 467.75 323 451.47 328.48 434.05 328.48 Z M 376.5 271.28 C 378.98 304.1 407.5 319.12 434.05 319.12 C 460.6 319.12 489.12 304.12 491.59 271.28 Z " style="stroke: rgb(45%,45%,45%); stroke-linecap: butt; stroke-width: 1; fill: rgb(45%,45%,45%); fill-rule: evenodd;"/>
								</g>
							</g>
							<g transform=" matrix(1,0,0,1,-0.5,0.5)">
								<g transform="">
									<path d="M 468.1 267.89 C 468.1 280.68 454.84 291.04 438.46 291.04 C 422.08 291.04 408.83 280.68 408.83 267.89 C 408.83 267.46 408.83 267.02 408.83 266.6 L 468.02 266.6 C 468.09 267 468.1 267.46 468.1 267.89 Z " style="stroke: rgb(45%,45%,45%); stroke-linecap: butt; stroke-width: 1; fill: rgb(45%,45%,45%); fill-rule: evenodd;"/>
								</g>
							</g>
							<g transform=" matrix(1,0,0,1,-0.5,0.5)">
								<g transform="">
									<path d="M 268.35 266.6 C 268.35 342.86 143.55 342.86 143.55 266.6 Z " style="stroke: rgb(45%,45%,45%); stroke-linecap: butt; stroke-width: 1; fill: rgb(100%,100%,100%); fill-rule: evenodd;"/>
								</g>
							</g>
							<g transform=" matrix(1,0,0,1,-0.5,0.5)">
								<g transform="">
									<path d="M 206 328.48 C 188.58 328.48 172.3 323.02 160.14 313.12 C 146.26 301.81 138.92 285.72 138.92 266.6 L 138.92 261.92 L 273 261.92 L 273 266.6 C 273 285.72 265.66 301.81 251.78 313.12 C 239.66 323 223.37 328.48 206 328.48 Z M 148.46 271.28 C 150.93 304.1 179.46 319.12 206 319.12 C 232.54 319.12 261.07 304.12 263.55 271.28 Z " style="stroke: rgb(45%,45%,45%); stroke-linecap: butt; stroke-width: 1; fill: rgb(45%,45%,45%); fill-rule: evenodd;"/>
								</g>
							</g>
							<g transform=" matrix(1,0,0,1,-0.5,0.5)">
								<g transform="">
									<path d="M 240 267.89 C 240 280.68 226.74 291.04 210.36 291.04 C 193.98 291.04 180.72 280.68 180.72 267.89 C 180.72 267.46 180.72 267.02 180.72 266.6 L 240 266.6 C 240 267 240 267.46 240 267.89 Z " style="stroke: rgb(45%,45%,45%); stroke-linecap: butt; stroke-width: 1; fill: rgb(45%,45%,45%); fill-rule: evenodd;"/>
								</g>
							</g>
						</g>
					</g>
				</g>
			</g>
			<g transform="">
				<g transform=" matrix(1,0,0,-1,0,639)">
					<g transform="">
						<rect x="0.0" y="0.0" width="640.0" height="639.0" style="stroke: none; stroke-linecap: butt; stroke-width: 1; fill: none; fill-rule: evenodd;"/>
					</g>
					<g transform="">
						<g transform="">
							<g transform=" matrix(1,0,0,1,-0.5,0.5)">
								<g transform="">
									<path d="M 146.53 152.7 C 147.170887 152.071299 147.772048 151.403343 148.33 150.7 C 148.860638 149.933098 149.512482 149.257612 150.26 148.7 C 151.007758 148.079375 151.807353 147.524007 152.65 147.04 C 153.514904 146.437945 154.452305 145.947406 155.44 145.58 C 156.417517 145.15754 157.419284 144.793565 158.44 144.49 C 159.58 144.35 160.56 143.96 161.73 143.91 C 162.83 143.68 164 143.73 165.14 143.61 C 166.28 143.7 167.44 143.61 168.55 143.81 C 169.72 143.81 170.72 144.18 171.87 144.3 C 172.906422 144.569757 173.925056 144.903736 174.92 145.3 C 175.921181 145.637206 176.878079 146.093831 177.77 146.66 C 178.667163 147.140844 179.511731 147.713944 180.29 148.37 C 181.020978 148.886871 181.691819 149.48392 182.29 150.15 C 183.36 151.26 184.17 152 184.17 152 C 184.501766 151.163282 184.749648 150.295694 184.91 149.41 C 185.17669 148.375514 185.244559 147.299801 185.11 146.24 C 185.064578 144.801244 184.773728 143.380817 184.25 142.04 C 183.670864 140.373164 182.789475 138.827344 181.65 137.48 C 180.396445 135.911784 178.90904 134.5458 177.24 133.43 C 175.440417 132.294365 173.482487 131.431662 171.43 130.87 C 167.209029 129.595186 162.695084 129.672108 158.52 131.09 C 156.486018 131.72209 154.555544 132.648583 152.79 133.84 C 151.156845 135.017203 149.716356 136.440824 148.52 138.06 C 147.434605 139.453439 146.61125 141.032383 146.09 142.72 C 145.596323 144.127656 145.34279 145.608287 145.34 147.1 C 145.237454 148.115879 145.367401 149.141773 145.72 150.1 C 145.930793 150.984014 146.201416 151.852682 146.53 152.7 Z " style="stroke: none; stroke-linecap: butt; stroke-width: 1; fill: rgb(45%,45%,45%); fill-rule: evenodd;"/>
								</g>
							</g>
							<g transform=" matrix(1,0,0,1,-0.5,0.5)">
								<g transform="">
									<path d="M 427.13 152.7 C 427.770887 152.071299 428.372048 151.403343 428.93 150.7 C 429.460638 149.933098 430.112482 149.257612 430.86 148.7 C 431.605787 148.08144 432.401882 147.526181 433.24 147.04 C 434.108415 146.437841 435.049135 145.947323 436.04 145.58 C 437.018003 145.158764 438.019697 144.794815 439.04 144.49 C 440.19 144.35 441.17 143.96 442.34 143.91 C 443.44 143.68 444.61 143.73 445.74 143.61 C 446.89 143.7 448.05 143.61 449.16 143.81 C 450.32 143.81 451.33 144.18 452.47 144.3 C 453.489919 144.5703 454.491885 144.904289 455.47 145.3 C 456.474348 145.637186 457.434559 146.09379 458.33 146.66 C 459.225837 147.143032 460.070188 147.715984 460.85 148.37 C 461.579251 148.889041 462.249864 149.485886 462.85 150.15 C 463.93 151.26 464.73 152 464.73 152 C 465.061766 151.163282 465.309648 150.295694 465.47 149.41 C 465.747873 148.377322 465.81588 147.299413 465.67 146.24 C 465.633365 144.801189 465.34571 143.379832 464.82 142.04 C 464.236747 140.375037 463.355767 138.829933 462.22 137.48 C 460.964027 135.914043 459.476994 134.5484 457.81 133.43 C 456.007875 132.292416 454.046352 131.429615 451.99 130.87 C 447.772408 129.595314 443.261674 129.672241 439.09 131.09 C 437.056018 131.72209 435.125544 132.648583 433.36 133.84 C 431.726845 135.017203 430.286356 136.440824 429.09 138.06 C 428.000808 139.450995 427.177073 141.030668 426.66 142.72 C 426.166323 144.127656 425.91279 145.608287 425.91 147.1 C 425.804963 148.115112 425.931468 149.140828 426.28 150.1 C 426.506308 150.984282 426.790248 151.852805 427.13 152.7 Z " style="stroke: none; stroke-linecap: butt; stroke-width: 1; fill: rgb(45%,45%,45%); fill-rule: evenodd;"/>
								</g>
							</g>
						</g>
					</g>
				</g>
			</g>
			<g transform="">
				<g transform=" matrix(1,0,0,-1,0,639)">
					<g transform="">
						<rect x="0.0" y="0.0" width="640.0" height="639.0" style="stroke: none; stroke-linecap: butt; stroke-width: 1; fill: none; fill-rule: evenodd;"/>
					</g>
					<g transform="">
						<g transform="">
							<g transform=" matrix(1,0,0,1,-0.5,0.5)">
								<g transform="">
									<path d="M 270.25 360.94 L 357.07 356 C 357.95 355.65 419.79 527.46 366.38 534.39 C 323.43 539.97 222.08 536.39 245.17 534.14 C 245.17 534.14 276.31 540.89 270.25 360.93 Z " style="stroke: rgb(58%,52%,52%); stroke-linecap: round; stroke-width: 15.63; fill: rgb(95%,83%,83%); fill-rule: evenodd;"/>
								</g>
							</g>
						</g>
					</g>
				</g>
			</g>
		</g>
	</g>
</svg>
